<?xml version="1.0" encoding="UTF-8" standalone="no"?>
<svg
   xmlns:dc="http://purl.org/dc/elements/1.1/"
   xmlns:cc="http://creativecommons.org/ns#"
   xmlns:rdf="http://www.w3.org/1999/02/22-rdf-syntax-ns#"
   xmlns:svg="http://www.w3.org/2000/svg"
   xmlns="http://www.w3.org/2000/svg"
   xmlns:sodipodi="http://sodipodi.sourceforge.net/DTD/sodipodi-0.dtd"
   xmlns:inkscape="http://www.inkscape.org/namespaces/inkscape"
   width="110"
   height="30"
   viewBox="0 0 110 30"
   class="app-brand-logo"
   version="1.1"
   id="svg4"
   sodipodi:docname="de-volkskrant.svg"
   style="fill:none"
   inkscape:version="0.92.4 (5da689c313, 2019-01-14)">
  <metadata
     id="metadata10">
    <rdf:RDF>
      <cc:Work
         rdf:about="">
        <dc:format>image/svg+xml</dc:format>
        <dc:type
           rdf:resource="http://purl.org/dc/dcmitype/StillImage" />
        <dc:title></dc:title>
      </cc:Work>
    </rdf:RDF>
  </metadata>
  <defs
     id="defs8" />
  <sodipodi:namedview
     pagecolor="#ffffff"
     bordercolor="#666666"
     borderopacity="1"
     objecttolerance="10"
     gridtolerance="10"
     guidetolerance="10"
     inkscape:pageopacity="0"
     inkscape:pageshadow="2"
     inkscape:window-width="1821"
     inkscape:window-height="1051"
     id="namedview6"
     showgrid="false"
     inkscape:zoom="8.1951863"
     inkscape:cx="61.319864"
     inkscape:cy="-0.88639597"
     inkscape:window-x="90"
     inkscape:window-y="-9"
     inkscape:window-maximized="1"
     inkscape:current-layer="svg4" />
  <path
     d="m 33.282623,15.083024 c 2.722641,0 4.497825,1.293063 4.497825,3.266905 0,2.041723 -1.735085,3.321391 -4.497825,3.321391 -2.749532,0 -4.498015,-1.279668 -4.498015,-3.294126 0,-2.014645 1.748483,-3.29417 4.498015,-3.29417 z m 74.475097,-2.218899 0.17345,0.136136 v 2.382113 h 2.04253 v 0.544687 h -2.04253 v 3.144309 c 0,0.394871 -0.0268,0.843897 0.0667,1.12985 0.0804,0.258595 0.28017,0.421949 0.6144,0.421949 0.88235,0 0.93265,-0.756602 0.93406,-1.509492 V 18.935234 H 110 v 0.204157 c 0,0.7488 -0.0399,1.089047 -0.20025,1.402077 -0.37372,0.748706 -1.21423,1.129852 -2.50932,1.129852 -0.97449,0 -1.64154,-0.204253 -2.05522,-0.680497 -0.26701,-0.299492 -0.41367,-0.721628 -0.45363,-1.211552 -0.0263,-0.265269 -0.0395,-0.479017 -0.0399,-1.081431 v -2.770779 h -1.09483 v -0.449448 z m -93.009492,2.245974 c 2.589326,0 4.044194,1.211505 4.084151,3.389693 h -5.245168 v 0.31303 c 0,0.612381 0.0267,1.034472 0.106757,1.293206 0.173461,0.612521 0.787488,0.979846 1.708243,0.979846 1.121202,0 2.215608,-0.571624 3.043147,-1.565337 l 0.306919,0.340436 c -0.867355,1.184146 -2.242121,1.810347 -3.937202,1.810347 -2.656031,0 -4.431215,-1.306745 -4.431215,-3.266908 0,-2.028325 1.681684,-3.294313 4.364368,-3.294313 z m -5.7923463,-7.2961981 9.4e-5,12.3610421 c 0.0038,0.655111 0.1456334,0.747718 1.01421,0.747718 h 0.3336193 v 0.50379 H 5.8992918 V 20.841148 C 5.312155,21.358148 4.5246912,21.644102 3.430172,21.644102 1.7217965,21.644102 0,20.391652 0,18.377194 c 0,-2.028183 1.6951003,-3.267095 3.430172,-3.267095 0.8809546,0 1.7484786,0.272275 2.3223591,0.694223 l -4.7e-5,-6.818521 C 5.7485823,8.3967414 5.6064756,8.3175225 4.7381334,8.3175225 H 4.1509543 V 7.8139009 Z M 59.242063,15.150997 c 0.774232,0 1.454915,0.122458 2.255471,0.367513 0.267009,0.08151 0.333759,0.09519 0.44047,0.09519 0.187094,0 0.253846,-0.08165 0.293802,-0.258547 h 0.440471 V 17.3698 h -0.440471 v -0.149674 c 0,-0.476432 -0.06674,-0.653466 -0.293802,-0.857578 -0.333761,-0.299492 -0.974018,-0.517329 -1.548463,-0.517329 -0.520384,0 -0.800556,0.190572 -0.800556,0.517329 0,0.31303 0.187095,0.476384 0.974488,0.789555 l 0.800555,0.31303 c 1.295086,0.517189 1.748719,1.007254 1.748719,1.905587 0,1.388586 -1.281454,2.246163 -3.390256,2.246163 -1.000813,0 -1.841796,-0.163356 -2.909361,-0.53101 -0.120341,-0.04076 -0.173932,-0.06797 -0.253845,-0.06797 -0.173463,0 -0.227052,0.122598 -0.240215,0.408551 h -0.453632 v -2.327816 h 0.453633 v 0.05444 c 0,0.489924 0.07991,0.775876 0.28017,1.007394 0.37372,0.435486 1.121155,0.775734 1.828633,0.775734 0.534018,0 0.814189,-0.190432 0.814189,-0.503602 0,-0.285671 -0.200256,-0.476432 -0.734275,-0.721582 l -0.466794,-0.217696 c -1.481709,-0.666958 -2.055684,-1.2658 -2.055684,-2.191539 0,-1.334103 1.241496,-2.150783 3.256753,-2.150782 z M 88.45835,15.1101 c 1.294617,0 2.228676,0.326709 2.735898,0.980175 0.173463,0.217792 0.293805,0.462706 0.360556,0.707761 0.07991,0.285812 0.09307,0.517423 0.09307,1.306885 v 2.042005 c 0,0.585303 0.10718,0.775735 0.707478,0.775735 h 0.267009 v 0.50379 h -4.070937 v -0.571764 c -0.693846,0.517282 -1.574786,0.748657 -2.468889,0.748657 -1.361367,0 -2.495684,-0.653466 -2.495684,-2.000965 0,-1.497458 1.441282,-2.055685 3.536923,-2.055685 0.480429,0 0.827352,0.01368 1.321412,0.05458 v -0.449168 c 0,-0.422089 -0.01363,-0.599123 -0.08039,-0.776017 -0.133505,-0.354115 -0.54718,-0.544405 -1.174744,-0.544405 -0.640256,0 -1.307778,0.19029 -1.64154,0.462564 -0.240213,0.190759 -0.33376,0.449449 -0.33376,0.939419 v 0.149816 h -0.44047 v -2.014645 h 0.400512 c 0.01363,0.231187 0.06674,0.29935 0.227052,0.29935 0.10671,0 0.427308,-0.108779 0.534017,-0.136136 0.907735,-0.258595 1.761411,-0.421951 2.522479,-0.421951 z M 67.704073,7.8139009 V 18.172895 l 1.42812,-1.061688 c 0.172992,-0.136137 0.453633,-0.340436 0.587136,-0.463035 0.227052,-0.203969 0.306966,-0.326568 0.306966,-0.476243 0,-0.122552 -0.07991,-0.204252 -0.17346,-0.244868 -0.103889,-0.04001 -0.170173,-0.05401 -0.604531,-0.05472 l -0.48983,-4.7e-5 v -0.50346 h 4.671241 v 0.50346 c -1.521667,0.04109 -2.496155,0.299633 -3.190001,0.816963 l 2.922993,3.743338 c 0.213889,0.272274 0.360555,0.408551 0.49406,0.449166 0.146666,0.0409 0.267008,0.05444 0.413675,0.05444 0.10671,0.01368 0.199787,0 0.199787,0 v 0.503791 H 69.946381 L 67.704073,18.45871 v 1.688218 c 0,0.670953 0.142436,0.786077 0.990941,0.789226 l 0.210127,4.7e-5 v 0.503791 H 63.152704 V 20.93621 h 0.333763 c 0.868715,0 1.010212,-0.09247 1.013973,-0.747718 V 9.011735 c 0,-0.6039284 -0.129273,-0.6917729 -0.976837,-0.6941605 l -0.624744,-5.2e-5 V 7.8139009 Z m -18.819406,0 V 18.172895 l 1.42812,-1.061688 c 0.173932,-0.136137 0.454103,-0.340436 0.587607,-0.463035 0.226581,-0.203969 0.306966,-0.326568 0.306966,-0.476243 0,-0.122552 -0.08039,-0.204252 -0.173462,-0.244868 -0.104359,-0.04001 -0.170171,-0.05401 -0.605,-0.05472 l -0.489828,-4.7e-5 v -0.50346 h 4.671709 v 0.50346 c -1.521666,0.04109 -2.496154,0.299633 -3.19,0.816963 l 2.922991,3.743338 c 0.213419,0.272274 0.360556,0.408551 0.494061,0.449166 0.146666,0.0409 0.266538,0.05444 0.413205,0.05444 0.10718,0.01368 0.200727,0 0.200727,0 v 0.503791 H 51.126975 L 48.884667,18.45871 v 1.688218 c 0,0.670953 0.142907,0.786077 0.99094,0.789226 l 0.210599,4.7e-5 v 0.503791 h -5.752625 v -0.503796 h 0.33376 c 0.8808,0 1.014304,-0.09505 1.014304,-0.775734 V 9.011735 c 0,-0.6039284 -0.129696,-0.6917729 -0.977025,-0.6941605 l -0.624603,-5.2e-5 V 7.8139009 Z M 81.42446,15.110099 c 1.187906,0 1.895385,0.775877 1.895385,1.933087 0,1.102492 -0.680684,1.837612 -1.708291,1.837612 -0.98812,0 -1.681966,-0.653279 -1.681966,-1.565339 0,-0.217932 0.0268,-0.408363 0.133505,-0.612803 0.05312,-0.108777 0.03996,-0.122457 0.03996,-0.149675 0,-0.04076 -0.05312,-0.06798 -0.07991,-0.06798 -0.10671,0 -0.240213,0.122552 -0.38735,0.353928 -0.146667,0.231377 -0.280172,0.558085 -0.346925,0.830501 -0.06674,0.299351 -0.106709,0.734978 -0.106709,1.306743 v 1.238723 c 0,0.603684 0.142907,0.704894 0.98953,0.707714 l 0.425429,4.7e-5 v 0.50379 h -5.845985 v -0.50379 h 0.253375 c 0.880941,0 1.014445,-0.08151 1.014445,-0.694222 V 16.5802 c 0,-0.612522 -0.133504,-0.694223 -1.014445,-0.694223 H 74.60446 v -0.503602 h 4.470984 v 1.579158 C 79.529077,15.804323 80.356428,15.1101 81.424463,15.1101 Z M 42.505138,7.8139009 V 20.2149 c 0,0.617269 0.142716,0.705317 0.990421,0.707714 l 0.371039,4.7e-5 v 0.50379 h -5.912689 v -0.50379 h 0.33362 c 0.88094,0 1.014445,-0.08151 1.014445,-0.694223 V 9.011735 c 0,-0.6039284 -0.129696,-0.6917729 -0.977167,-0.6941605 l -0.624461,-5.2e-5 V 7.8139009 Z M 100.01682,15.1918 c 0.88093,0 1.57478,0.272274 2.01525,0.762198 0.24021,0.272273 0.37371,0.612663 0.42685,0.993854 0.0259,0.251167 0.0395,0.374047 0.0399,0.867496 l 4.6e-4,2.372193 c 0,0.644393 0.12976,0.732722 0.97731,0.735073 l 0.25057,4.7e-5 v 0.50379 h -5.152138 v -0.449355 h 0.08038 c 0.266537,0 0.426842,-0.0409 0.520384,-0.135948 0.09116,-0.09317 0.118467,-0.316179 0.119878,-0.871915 v -2.340885 c 0,-0.73479 -0.01311,-0.93909 -0.07995,-1.088906 -0.09356,-0.231375 -0.32013,-0.340249 -0.653894,-0.340249 -0.346924,0 -0.680684,0.149818 -0.880941,0.394686 -0.200256,0.258593 -0.240213,0.449307 -0.240213,1.225089 v 2.109979 c 0,0.272273 0.01316,0.530868 0.02633,0.667004 0.04043,0.272274 0.187094,0.381145 0.614402,0.381145 h 0.133504 v 0.449355 H 93.06276 v -0.50379 h 0.253375 c 0.88094,0 1.014446,-0.08151 1.014446,-0.73512 v -3.566257 c 0,-0.653607 -0.133507,-0.735308 -1.014446,-0.735308 h -0.400042 v -0.503602 h 4.417863 V 16.25363 C 98.054597,15.545728 98.96233,15.1918 100.01673,15.1918 Z M 24.847359,7.8139009 v 0.5036216 h -0.253517 c -0.533924,0 -0.627283,0.013539 -0.814141,0.040917 -0.320364,0.054305 -0.493967,0.2448913 -0.493967,0.5306984 0,0.2450414 0.106804,0.5445379 0.413722,1.2524361 l 3.069847,7.02407 2.856288,-6.574899 c 0.200303,-0.462709 0.533923,-1.2115242 0.533923,-1.6197735 0,-0.4973136 -0.312184,-0.6495512 -1.475882,-0.6533727 L 28.53109,8.3175235 V 7.8138979 h 4.164348 V 8.3175195 H 32.56198 c -0.480661,0 -0.614026,0.013539 -0.787628,0.054456 -0.280218,0.081683 -0.413675,0.2585802 -0.680638,0.8711102 L 25.674945,21.426451 H 24.967418 L 19.468545,9.2430874 C 19.335088,8.9572813 19.21503,8.7122389 19.108226,8.5897908 18.934623,8.385516 18.707806,8.3175225 18.067127,8.3175225 h -0.45368 V 7.8139009 Z m 8.435264,7.7861221 c -0.520668,0 -0.907689,0.231659 -1.05459,0.61285 -0.09336,0.24501 -0.106757,0.503604 -0.106757,1.401795 v 1.573095 c 4.69e-4,0.82768 0.01406,1.093655 0.09688,1.326911 l 0.0099,0.0268 c 0.146901,0.381193 0.533923,0.612569 1.05459,0.612569 0.520479,0 0.9075,-0.231376 1.054401,-0.612569 0.08993,-0.235982 0.105535,-0.484798 0.106568,-1.306602 v -1.715677 c -9.86e-4,-0.790496 -0.01546,-1.050594 -0.0967,-1.279525 l -0.0099,-0.0268 C 34.190119,15.831679 33.803097,15.60002 33.282619,15.60002 Z M 4.484574,15.872296 c -1.0708407,0 -1.0938703,0.886347 -1.0943638,1.817211 v 1.375187 c 4.935e-4,0.930864 0.023523,1.817069 1.0943638,1.817069 0.3470594,0 0.6806791,-0.135996 0.9076365,-0.340295 C 5.685873,20.282921 5.779232,19.928947 5.779232,19.112173 v -1.470145 c 0,-0.816774 -0.093359,-1.17056 -0.3870215,-1.429155 C 5.1652531,16.008575 4.8316334,15.872296 4.484574,15.872296 Z m 83.619332,2.218946 h -0.05923 c -0.827821,0 -1.134787,0.32671 -1.134787,1.184145 v 0.285952 c 0,0.830313 0.187095,1.143532 0.70748,1.143532 0.267008,0 0.507222,-0.10892 0.653888,-0.285812 0.10671,-0.136138 0.147137,-0.285813 0.160301,-0.571765 0.01363,-0.231237 0.01363,-0.449168 0.01363,-0.598842 V 18.104921 C 88.236,18.092983 88.218606,18.091432 88.103906,18.091242 Z M 14.708272,15.627429 c -0.440423,0 -0.78744,0.163355 -0.947598,0.435628 -0.14676,0.24501 -0.173462,0.476385 -0.173462,1.333961 v 0.558228 h 2.162065 l -4.7e-5,-0.632077 c -6.12e-4,-0.65812 -0.01537,-0.884842 -0.106757,-1.137514 -0.12006,-0.353973 -0.453679,-0.558226 -0.934201,-0.558226 z"
     id="path2"
     inkscape:connector-curvature="0"
     style="clip-rule:evenodd;fill:#ffffff;fill-rule:evenodd;stroke-width:0.99999994;fill-opacity:1" />
</svg>
