<?xml version="1.0" encoding="UTF-8" standalone="no"?>
<!DOCTYPE svg PUBLIC "-//W3C//DTD SVG 1.1//EN" "http://www.w3.org/Graphics/SVG/1.1/DTD/svg11.dtd">
<svg width="100%" height="100%" viewBox="0 0 96 96" version="1.1" xmlns="http://www.w3.org/2000/svg" xmlns:xlink="http://www.w3.org/1999/xlink" xml:space="preserve" xmlns:serif="http://www.serif.com/" style="fill-rule:evenodd;clip-rule:evenodd;stroke-linejoin:round;stroke-miterlimit:2;">
    <g>
        <g id="icon-m-device_1_" transform="matrix(1.5,0,0,1.5,0,0)">
            <rect x="0" y="0" width="64" height="64" style="fill:white;fill-opacity:0;"/>
        </g>
        <g transform="matrix(1.5,0,0,1.5,0,0)">
            <path d="M43.963,57L20.037,57C17.26,57 15,54.74 15,51.963L15,12.037C15,9.26 17.26,7 20.037,7L43.963,7C46.74,7 49,9.26 49,12.037L49,51.963C49,54.74 46.74,57 43.963,57ZM20.037,9C18.362,9 17,10.362 17,12.037L17,51.963C17,53.638 18.362,55 20.037,55L43.963,55C45.638,55 47,53.638 47,51.963L47,12.037C47,10.362 45.638,9 43.963,9L20.037,9Z" style="fill:rgb(64,64,64);fill-rule:nonzero;"/>
        </g>
        <path d="M30.86,31.717L64.283,31.717L31.717,64.283L30.86,64.283C28.967,64.283 27.432,62.748 27.432,60.855L27.432,35.145C27.432,33.252 28.967,31.717 30.86,31.717Z" style="fill:rgb(102,102,102);fill-rule:nonzero;"/>
        <path d="M31.717,64.283L30.86,64.283C28.967,64.283 27.432,62.748 27.432,60.855L27.432,60.159L33.642,53.946C35.344,52.243 38.125,52.243 39.827,53.947L40.718,54.845C40.792,54.918 40.867,54.989 40.944,55.056L31.717,64.283Z" style="fill:rgb(38,38,38);fill-rule:nonzero;"/>
        <g transform="matrix(0.856987,0,0,0.856987,21.005,21.005)">
            <circle cx="21.521" cy="24.594" r="5.625"/>
        </g>
        <path d="M50.136,85.5L46.811,85.5C47.643,82.947 50.048,81.098 52.874,81.098L65.874,81.098C68.423,81.098 70.497,79.373 70.498,77.253L70.5,76.41C70.5,75.582 71.171,74.91 72,74.91C72.83,74.91 73.5,75.582 73.5,76.41L73.498,77.255C73.497,81.027 70.077,84.097 65.874,84.098L52.874,84.098C51.748,84.098 50.75,84.651 50.136,85.5ZM40.5,84.098L27,84C26.172,84 25.5,83.328 25.5,82.5C25.5,81.672 26.172,81 27,81L40.5,81.098C43.752,81.098 46.5,79.338 46.5,77.253L46.5,75.4C46.497,75.362 46.496,75.323 46.496,75.284L46.497,70.407C46.498,66.893 49.361,64.034 52.873,64.034L65.874,64.034C68.423,64.034 70.497,62.309 70.498,60.189L70.5,59.346C70.5,58.518 71.171,57.846 72,57.846C72.83,57.846 73.5,58.518 73.5,59.346L73.498,60.191C73.497,63.963 70.077,67.033 65.874,67.034L52.873,67.034C51.012,67.034 49.497,68.549 49.497,70.41L49.497,71.807C49.499,71.84 49.5,71.874 49.5,71.909L49.5,77.253C49.5,81.027 45.464,84.097 40.5,84.098ZM31.966,64.034L40.5,64.034C43.752,64.034 46.5,62.274 46.5,60.189L46.5,58.336C46.497,58.298 46.496,58.259 46.496,58.22L46.497,53.343C46.498,49.829 49.361,46.969 52.873,46.969L65.874,46.969C68.423,46.969 70.497,45.245 70.498,43.125L70.5,42.282C70.5,41.454 71.171,40.782 72,40.782C72.83,40.782 73.5,41.454 73.5,42.282L73.498,43.127C73.497,46.899 70.077,49.969 65.874,49.97L52.873,49.97C51.012,49.97 49.497,51.485 49.497,53.346L49.497,54.743C49.499,54.776 49.5,54.81 49.5,54.845L49.5,60.189C49.5,63.963 45.464,67.033 40.5,67.034L28.966,67.034L31.966,64.034ZM72.14,23.86C72.904,23.93 73.5,24.573 73.5,25.354L73.498,26.198C73.497,29.97 70.077,33.041 65.874,33.041L62.959,33.041L65.96,30.04C68.469,30.002 70.497,28.292 70.498,26.197L70.5,25.5L72.14,23.86Z" style="fill:rgb(64,64,64);fill-rule:nonzero;"/>
        <g id="path4629" transform="matrix(0.0542454,0,0,0.0542436,45.6675,74.9206)">
            <circle cx="43" cy="43" r="17.5" style="fill:rgb(64,64,64);"/>
        </g>
        <g id="path7338" transform="matrix(0.0637281,0,0,0.0637281,45.2598,74.5128)">
            <path d="M42.404,31.998C36.6,31.998 31.998,36.972 31.998,42.83L31.998,42.873C31.998,44.518 33.352,45.873 34.998,45.873C36.644,45.873 37.998,44.518 37.998,42.873L37.998,42.83C37.998,40.039 40.029,37.998 42.404,37.998L42.447,37.998C44.093,37.998 45.447,36.644 45.447,34.998C45.447,33.352 44.093,31.998 42.447,31.998L42.404,31.998Z" style="fill:white;fill-rule:nonzero;"/>
        </g>
        <g id="Fill-7-1" transform="matrix(0.0637281,0,0,0.0637281,45.2598,74.5128)">
            <path d="M12.635,43C12.635,26.229 26.229,12.635 42.998,12.635C59.769,12.635 73.365,26.229 73.365,43C73.365,59.77 59.769,73.365 42.998,73.365C26.229,73.365 12.635,59.77 12.635,43M28.104,43C28.104,34.773 34.773,28.104 42.998,28.104C51.226,28.104 57.896,34.773 57.896,43C57.896,51.226 51.226,57.895 42.998,57.895C34.773,57.895 28.104,51.226 28.104,43" style="fill:rgb(153,153,153);"/>
        </g>
    </g>
</svg>
