<?xml version="1.0" encoding="UTF-8" standalone="no"?>
<!DOCTYPE svg PUBLIC "-//W3C//DTD SVG 1.1//EN" "http://www.w3.org/Graphics/SVG/1.1/DTD/svg11.dtd">
<svg width="100%" height="100%" viewBox="0 0 96 96" version="1.1" xmlns="http://www.w3.org/2000/svg" xmlns:xlink="http://www.w3.org/1999/xlink" xml:space="preserve" xmlns:serif="http://www.serif.com/" style="fill-rule:evenodd;clip-rule:evenodd;stroke-linejoin:round;stroke-miterlimit:2;">
    <rect id="icon-l-message_1_" x="0.203" y="0.203" width="95.797" height="95.797" style="fill:rgb(0,0,33);fill-opacity:0;"/>
    <g id="path3" transform="matrix(1,0,0,1,1.8295,27.32)">
        <path d="M29.427,54.702L28.235,54.702C25.055,54.702 22.468,52.154 22.468,49.023L22.468,47.853C22.468,44.721 25.055,42.173 28.235,42.173L29.427,42.173C32.607,42.173 35.194,44.721 35.194,47.853L35.194,49.023C35.193,52.154 32.606,54.702 29.427,54.702ZM28.234,44.173C26.157,44.173 24.467,45.824 24.467,47.853L24.467,49.023C24.467,51.051 26.157,52.702 28.234,52.702L29.426,52.702C31.503,52.702 33.193,51.052 33.193,49.023L33.193,47.853C33.193,45.824 31.504,44.173 29.426,44.173L28.234,44.173Z" style="fill:white;fill-opacity:0.4;fill-rule:nonzero;"/>
    </g>
    <g id="path5" transform="matrix(1,0,0,1,1.8295,27.32)">
        <path d="M46.868,54.702L45.676,54.702C42.496,54.702 39.909,52.154 39.909,49.023L39.909,47.853C39.909,44.721 42.496,42.173 45.676,42.173L46.868,42.173C50.049,42.173 52.637,44.721 52.637,47.853L52.637,49.023C52.637,52.154 50.049,54.702 46.868,54.702ZM45.675,44.173C43.598,44.173 41.908,45.824 41.908,47.853L41.908,49.023C41.908,51.051 43.598,52.702 45.675,52.702L46.867,52.702C48.945,52.702 50.636,51.052 50.636,49.023L50.636,47.853C50.636,45.824 48.945,44.173 46.867,44.173L45.675,44.173Z" style="fill:white;fill-opacity:0.4;fill-rule:nonzero;"/>
    </g>
    <g id="path7" transform="matrix(1,0,0,1,1.8295,27.32)">
        <path d="M64.312,54.702L63.117,54.702C59.937,54.702 57.35,52.154 57.35,49.023L57.35,47.853C57.35,44.721 59.937,42.173 63.117,42.173L64.312,42.173C67.49,42.173 70.076,44.721 70.076,47.853L70.076,49.023C70.075,52.154 67.489,54.702 64.312,54.702ZM63.116,44.173C61.039,44.173 59.349,45.824 59.349,47.853L59.349,49.023C59.349,51.051 61.038,52.702 63.116,52.702L64.311,52.702C66.386,52.702 68.075,51.052 68.075,49.023L68.075,47.853C68.075,45.824 66.387,44.173 64.311,44.173L63.116,44.173Z" style="fill:white;fill-opacity:0.4;fill-rule:nonzero;"/>
    </g>
</svg>
