<?xml version="1.0" encoding="UTF-8" standalone="no"?>
<!DOCTYPE svg PUBLIC "-//W3C//DTD SVG 1.1//EN" "http://www.w3.org/Graphics/SVG/1.1/DTD/svg11.dtd">
<svg width="100%" height="100%" viewBox="0 0 64 64" version="1.1" xmlns="http://www.w3.org/2000/svg" xmlns:xlink="http://www.w3.org/1999/xlink" xml:space="preserve" xmlns:serif="http://www.serif.com/" style="fill-rule:evenodd;clip-rule:evenodd;stroke-linejoin:round;stroke-miterlimit:2;">
    <g id="icon-m-device">
        <rect id="icon-m-device_1_" x="0" y="0" width="64" height="64" style="fill:white;fill-opacity:0;"/>
        <path d="M43.963,57L20.037,57C17.26,57 15,54.74 15,51.963L15,12.037C15,9.26 17.26,7 20.037,7L43.963,7C46.74,7 49,9.26 49,12.037L49,51.963C49,54.74 46.74,57 43.963,57ZM20.037,9C18.362,9 17,10.362 17,12.037L17,51.963C17,53.638 18.362,55 20.037,55L43.963,55C45.638,55 47,53.638 47,51.963L47,12.037C47,10.362 45.638,9 43.963,9L20.037,9Z" style="fill:white;fill-rule:nonzero;"/>
        <g transform="matrix(1,0,0,1,7.331,0)">
            <path d="M24.666,28.5C24.113,28.5 23.666,28.052 23.666,27.5L23.667,24.25C23.668,21.907 25.576,20 27.918,20L31.168,20C31.72,20 32.168,20.448 32.168,21C32.168,21.552 31.72,22 31.168,22L27.918,22C26.677,22 25.667,23.01 25.667,24.25L25.666,27.5C25.666,28.052 25.218,28.5 24.666,28.5Z" style="fill:white;fill-rule:nonzero;"/>
        </g>
        <g transform="matrix(1,0,0,1,7.331,0)">
            <path d="M19.669,22L10,22C9.448,22 9,21.552 9,21C9,20.448 9.448,20 10,20L19.669,20C21.875,20 23.669,18.206 23.669,16L23.669,10C23.669,9.448 24.117,9 24.669,9C25.221,9 25.669,9.448 25.669,10L25.669,16C25.669,19.309 22.978,22 19.669,22Z" style="fill:white;fill-rule:nonzero;"/>
        </g>
        <g transform="matrix(1,0,0,1,8.664,-11.2856)">
            <path d="M35.252,33.313L29.169,33.313C28.617,33.313 28.169,32.865 28.169,32.313C28.169,31.761 28.617,31.313 29.169,31.313L35.252,31.313C36.951,31.313 38.334,30.163 38.335,28.75L38.336,28.188C38.336,27.636 38.783,27.188 39.336,27.188C39.889,27.188 40.336,27.636 40.336,28.188L40.335,28.751C40.334,31.266 38.054,33.313 35.252,33.313Z" style="fill:white;fill-rule:nonzero;"/>
        </g>
        <g>
            <g transform="matrix(1,0,0,1,8.664,0)">
                <path d="M35.252,33.313L29.169,33.313C28.617,33.313 28.169,32.865 28.169,32.313C28.169,31.761 28.617,31.313 29.169,31.313L35.252,31.313C36.951,31.313 38.334,30.163 38.335,28.75L38.336,28.188C38.336,27.636 38.783,27.188 39.336,27.188C39.889,27.188 40.336,27.636 40.336,28.188L40.335,28.751C40.334,31.266 38.054,33.313 35.252,33.313Z" style="fill:white;fill-rule:nonzero;"/>
            </g>
            <g transform="matrix(1,0,0,1,7.331,0)">
                <path d="M24.666,39.813C24.113,39.813 23.666,39.365 23.666,38.813L23.667,35.562C23.668,33.219 25.576,31.313 27.918,31.313L31.168,31.313C31.72,31.313 32.168,31.761 32.168,32.313C32.168,32.865 31.72,33.313 31.168,33.313L27.918,33.313C26.677,33.313 25.667,34.323 25.667,35.564L25.666,38.813C25.666,39.365 25.218,39.813 24.666,39.813Z" style="fill:white;fill-rule:nonzero;"/>
            </g>
            <g transform="matrix(1,0,0,1,7.331,0)">
                <path d="M19.669,33.313L10,33.313C9.448,33.313 9,32.865 9,32.313C9,31.761 9.448,31.313 10,31.313L19.669,31.313C21.837,31.313 23.669,30.14 23.669,28.75L23.669,25.187C23.669,24.635 24.117,24.187 24.669,24.187C25.221,24.187 25.669,24.635 25.669,25.187L25.669,28.75C25.669,31.266 22.978,33.313 19.669,33.313Z" style="fill:white;fill-rule:nonzero;"/>
            </g>
        </g>
        <g transform="matrix(1,0,0,1,0,11.376)">
            <g transform="matrix(1,0,0,1,8.664,0)">
                <path d="M35.252,33.313L29.169,33.313C28.617,33.313 28.169,32.865 28.169,32.313C28.169,31.761 28.617,31.313 29.169,31.313L35.252,31.313C36.951,31.313 38.334,30.163 38.335,28.75L38.336,28.188C38.336,27.636 38.783,27.188 39.336,27.188C39.889,27.188 40.336,27.636 40.336,28.188L40.335,28.751C40.334,31.266 38.054,33.313 35.252,33.313Z" style="fill:white;fill-rule:nonzero;"/>
            </g>
            <g transform="matrix(1,0,0,1,7.331,0)">
                <path d="M24.666,39.813C24.113,39.813 23.666,39.365 23.666,38.813L23.667,35.562C23.668,33.219 25.576,31.313 27.918,31.313L31.168,31.313C31.72,31.313 32.168,31.761 32.168,32.313C32.168,32.865 31.72,33.313 31.168,33.313L27.918,33.313C26.677,33.313 25.667,34.323 25.667,35.564L25.666,38.813C25.666,39.365 25.218,39.813 24.666,39.813Z" style="fill:white;fill-rule:nonzero;"/>
            </g>
            <g transform="matrix(1,0,0,1,7.331,0)">
                <path d="M19.669,33.313L10,33.313C9.448,33.313 9,32.865 9,32.313C9,31.761 9.448,31.313 10,31.313L19.669,31.313C21.837,31.313 23.669,30.14 23.669,28.75L23.669,25.187C23.669,24.635 24.117,24.187 24.669,24.187C25.221,24.187 25.669,24.635 25.669,25.187L25.669,28.75C25.669,31.266 22.978,33.313 19.669,33.313Z" style="fill:white;fill-rule:nonzero;"/>
            </g>
        </g>
        <g transform="matrix(1,0,0,1,8.664,22.752)">
            <path d="M35.252,33.313L29.169,33.313C28.617,33.313 28.169,32.865 28.169,32.313C28.169,31.761 28.617,31.313 29.169,31.313L35.252,31.313C36.951,31.313 38.334,30.163 38.335,28.75L38.336,28.188C38.336,27.636 38.783,27.188 39.336,27.188C39.889,27.188 40.336,27.636 40.336,28.188L40.335,28.751C40.334,31.266 38.054,33.313 35.252,33.313Z" style="fill:white;fill-rule:nonzero;"/>
        </g>
        <g transform="matrix(1,0,0,1,7.331,22.752)">
            <path d="M19.669,33.313L10,33.313C9.448,33.313 9,32.865 9,32.313C9,31.761 9.448,31.313 10,31.313L19.669,31.313C21.837,31.313 23.669,30.14 23.669,28.75L23.669,25.187C23.669,24.635 24.117,24.187 24.669,24.187C25.221,24.187 25.669,24.635 25.669,25.187L25.669,28.75C25.669,31.266 22.978,33.313 19.669,33.313Z" style="fill:white;fill-rule:nonzero;"/>
        </g>
        <path d="M31.207,57C31.762,55.298 33.365,54.065 35.249,54.065L38.499,54.065C39.051,54.065 39.499,54.513 39.499,55.065C39.499,55.617 39.051,56.065 38.499,56.065L35.249,56.065C34.499,56.065 33.833,56.434 33.424,57L31.207,57Z" style="fill:white;fill-rule:nonzero;"/>
        <g transform="matrix(0.622264,0,0,0.622264,12.0876,19.4542)">
            <g id="path4629" transform="matrix(0.0581162,0,0,0.0581142,29.501,49.0031)">
                <circle cx="43" cy="43" r="17.5" style="fill:rgb(64,64,64);"/>
            </g>
            <g id="path7338" transform="matrix(0.0682756,0,0,0.0682756,29.0642,48.5662)">
                <path d="M42.404,31.998C36.6,31.998 31.998,36.972 31.998,42.83L31.998,42.873C31.998,44.518 33.352,45.873 34.998,45.873C36.644,45.873 37.998,44.518 37.998,42.873L37.998,42.83C37.998,40.039 40.029,37.998 42.404,37.998L42.447,37.998C44.093,37.998 45.447,36.644 45.447,34.998C45.447,33.352 44.093,31.998 42.447,31.998L42.404,31.998Z" style="fill:white;fill-rule:nonzero;"/>
            </g>
            <g id="Fill-7-1" transform="matrix(0.0682756,0,0,0.0682756,29.0642,48.5662)">
                <path d="M12.635,43C12.635,26.229 26.229,12.635 42.998,12.635C59.769,12.635 73.365,26.229 73.365,43C73.365,59.77 59.769,73.365 42.998,73.365C26.229,73.365 12.635,59.77 12.635,43M28.104,43C28.104,34.773 34.773,28.104 42.998,28.104C51.226,28.104 57.896,34.773 57.896,43C57.896,51.226 51.226,57.895 42.998,57.895C34.773,57.895 28.104,51.226 28.104,43" style="fill:rgb(153,153,153);"/>
            </g>
        </g>
    </g>
</svg>
