<?xml version="1.0" encoding="UTF-8" standalone="no"?>
<svg
   xmlns:dc="http://purl.org/dc/elements/1.1/"
   xmlns:cc="http://creativecommons.org/ns#"
   xmlns:rdf="http://www.w3.org/1999/02/22-rdf-syntax-ns#"
   xmlns:svg="http://www.w3.org/2000/svg"
   xmlns="http://www.w3.org/2000/svg"
   xmlns:sodipodi="http://sodipodi.sourceforge.net/DTD/sodipodi-0.dtd"
   xmlns:inkscape="http://www.inkscape.org/namespaces/inkscape"
   width="100%"
   height="100%"
   viewBox="0 0 96 96"
   version="1.1"
   xml:space="preserve"
   style="fill-rule:evenodd;clip-rule:evenodd;stroke-linejoin:round;stroke-miterlimit:2;"
   id="svg12"
   sodipodi:docname="icon-hide-show.svg"
   inkscape:version="0.92.4 (5da689c313, 2019-01-14)"><metadata
   id="metadata18"><rdf:RDF><cc:Work
       rdf:about=""><dc:format>image/svg+xml</dc:format><dc:type
         rdf:resource="http://purl.org/dc/dcmitype/StillImage" /></cc:Work></rdf:RDF></metadata><defs
   id="defs16">
        
        
    
            
            
            
        </defs><sodipodi:namedview
   pagecolor="#ffffff"
   bordercolor="#666666"
   borderopacity="1"
   objecttolerance="10"
   gridtolerance="10"
   guidetolerance="10"
   inkscape:pageopacity="0"
   inkscape:pageshadow="2"
   inkscape:window-width="1821"
   inkscape:window-height="1051"
   id="namedview14"
   showgrid="false"
   inkscape:zoom="4.8605422"
   inkscape:cx="69.740897"
   inkscape:cy="35.531328"
   inkscape:window-x="90"
   inkscape:window-y="-9"
   inkscape:window-maximized="1"
   inkscape:current-layer="svg12" />
    <rect
   style="fill:#000021;fill-opacity:0;stroke-width:1"
   height="95.796608"
   width="95.796608"
   y="0.2033899"
   x="0.20338975"
   id="icon-l-message_1_" /><path
   d="m 29.427,54.702 h -1.192 c -3.18,0 -5.767,-2.548 -5.767,-5.679 v -1.17 c 0,-3.132 2.587,-5.68 5.767,-5.68 h 1.192 c 3.18,0 5.767,2.548 5.767,5.68 v 1.17 c -0.001,3.131 -2.588,5.679 -5.767,5.679 z M 28.234,44.173 c -2.077,0 -3.767,1.651 -3.767,3.68 v 1.17 c 0,2.028 1.69,3.679 3.767,3.679 h 1.192 c 2.077,0 3.767,-1.65 3.767,-3.679 v -1.17 c 0,-2.029 -1.689,-3.68 -3.767,-3.68 z"
   style="fill:#ffffff;fill-rule:nonzero;opacity:0.6"
   id="path3"
   inkscape:connector-curvature="0" /><path
   d="m 46.868,54.702 h -1.192 c -3.18,0 -5.767,-2.548 -5.767,-5.679 v -1.17 c 0,-3.132 2.587,-5.68 5.767,-5.68 h 1.192 c 3.181,0 5.769,2.548 5.769,5.68 v 1.17 c 0,3.131 -2.588,5.679 -5.769,5.679 z M 45.675,44.173 c -2.077,0 -3.767,1.651 -3.767,3.68 v 1.17 c 0,2.028 1.69,3.679 3.767,3.679 h 1.192 c 2.078,0 3.769,-1.65 3.769,-3.679 v -1.17 c 0,-2.029 -1.691,-3.68 -3.769,-3.68 z"
   style="fill:#ffffff;fill-rule:nonzero;opacity:0.6"
   id="path5"
   inkscape:connector-curvature="0" /><path
   d="m 64.312,54.702 h -1.195 c -3.18,0 -5.767,-2.548 -5.767,-5.679 v -1.17 c 0,-3.132 2.587,-5.68 5.767,-5.68 h 1.195 c 3.178,0 5.764,2.548 5.764,5.68 v 1.17 c -10e-4,3.131 -2.587,5.679 -5.764,5.679 z M 63.116,44.173 c -2.077,0 -3.767,1.651 -3.767,3.68 v 1.17 c 0,2.028 1.689,3.679 3.767,3.679 h 1.195 c 2.075,0 3.764,-1.65 3.764,-3.679 v -1.17 c 0,-2.029 -1.688,-3.68 -3.764,-3.68 z"
   style="fill:#ffffff;fill-rule:nonzero;opacity:0.6"
   id="path7"
   inkscape:connector-curvature="0" />
</svg>