<?xml version="1.0" encoding="UTF-8" standalone="no"?>
<!DOCTYPE svg PUBLIC "-//W3C//DTD SVG 1.1//EN" "http://www.w3.org/Graphics/SVG/1.1/DTD/svg11.dtd">
<svg width="100%" height="100%" viewBox="0 0 96 96" version="1.1" xmlns="http://www.w3.org/2000/svg" xmlns:xlink="http://www.w3.org/1999/xlink" xml:space="preserve" xmlns:serif="http://www.serif.com/" style="fill-rule:evenodd;clip-rule:evenodd;stroke-linejoin:round;stroke-miterlimit:2;">
    <g id="icon-l-play_2_">
        <rect id="icon-l-play_3_" x="0" y="0" width="96" height="96" style="fill:white;fill-opacity:0;"/>
        <g>
            <circle cx="48" cy="48.001" r="44" style="fill:white;fill-opacity:0.15;"/>
            <g transform="matrix(0.523562,0,0,0.523562,22.5694,22.8988)">
                <path d="M47.419,12.447C41.531,12.447 36.267,14.591 31.627,18.879C26.987,23.167 24.667,28.255 24.667,34.143L24.667,35.199L24.763,35.199C24.891,36.543 25.499,37.663 26.587,38.559C27.675,39.455 28.923,39.903 30.331,39.903C31.803,39.903 33.067,39.455 34.123,38.559C35.179,37.663 35.803,36.543 35.995,35.199C35.995,32.063 37.115,29.375 39.355,27.135C41.595,24.895 44.283,23.775 47.419,23.775C50.555,23.775 53.227,24.895 55.435,27.135C57.643,29.375 58.747,32.063 58.747,35.199C58.747,39.423 56.891,42.655 53.179,44.895C52.411,45.151 51.771,45.375 51.259,45.567C50.747,45.759 49.435,46.079 47.323,46.527C45.915,46.655 44.731,47.183 43.771,48.111C42.811,49.039 42.331,50.175 42.331,51.519L42.331,64.191C42.331,65.535 42.939,66.703 44.155,67.695C45.371,68.687 46.747,69.183 48.283,69.183C49.755,69.183 51.019,68.687 52.075,67.695C53.131,66.703 53.659,65.535 53.659,64.191L53.659,56.991C58.459,55.583 62.395,52.879 65.467,48.879C68.539,44.879 70.075,40.319 70.075,35.199C70.075,28.927 67.867,23.567 63.451,19.119C59.035,14.671 53.691,12.447 47.419,12.447ZM47.995,71.679C46.331,71.679 44.923,72.271 43.771,73.455C42.619,74.639 42.043,76.063 42.043,77.727C42.043,79.391 42.619,80.799 43.771,81.951C44.923,83.103 46.331,83.679 47.995,83.679C49.659,83.679 51.067,83.103 52.219,81.951C53.371,80.799 53.947,79.391 53.947,77.727C53.947,76.063 53.371,74.639 52.219,73.455C51.067,72.271 49.659,71.679 47.995,71.679Z" style="fill:none;fill-rule:nonzero;stroke:white;stroke-width:3.56px;"/>
            </g>
        </g>
    </g>
</svg>
