<?xml version="1.0" encoding="UTF-8" standalone="no"?>
<!DOCTYPE svg PUBLIC "-//W3C//DTD SVG 1.1//EN" "http://www.w3.org/Graphics/SVG/1.1/DTD/svg11.dtd">
<svg width="100%" height="100%" viewBox="0 0 110 39" version="1.1" xmlns="http://www.w3.org/2000/svg" xmlns:xlink="http://www.w3.org/1999/xlink" xml:space="preserve" xmlns:serif="http://www.serif.com/" style="fill-rule:evenodd;clip-rule:evenodd;stroke-linejoin:round;stroke-miterlimit:2;">
    <path id="Fill-6" d="M109.912,26.368C109.912,18.966 106.331,16.738 96.933,14.478C92.127,13.347 90.794,12.701 90.794,11.301C90.794,9.957 91.541,8.987 94.638,8.987C98.428,8.987 101.738,10.279 105.05,12.54C105.05,12.54 109.448,5.551 109.912,4.359C106.117,1.561 101.525,0 95.172,0C86.147,0 80.434,4.79 80.434,11.893C80.434,19.428 84.76,21.904 93.783,24.003C98.801,25.188 100.136,26.048 100.136,27.446C100.136,29.224 98.962,29.869 95.278,29.869C91.808,29.869 87.056,27.986 84.332,26.103L79.314,34.282C83.212,36.865 89.031,38.858 95.064,38.858C104.035,38.858 109.912,35.62 109.912,26.694" style="fill:white;fill-opacity:0.55;"/>
    <path id="Fill-7" d="M37.589,19.429C37.589,8.698 46.394,0 57.256,0C68.119,0 76.925,8.698 76.925,19.429C76.925,30.159 68.119,38.858 57.256,38.858C46.394,38.858 37.589,30.159 37.589,19.429M47.608,19.429C47.608,14.165 51.928,9.898 57.256,9.898C62.585,9.898 66.906,14.165 66.906,19.429C66.906,24.692 62.585,28.959 57.256,28.959C51.928,28.959 47.608,24.692 47.608,19.429" style="fill:white;fill-opacity:0.75;"/>
    <path id="Fill-5" d="M32.953,38.858L32.953,0L22.753,0L22.753,19.984C22.753,19.984 9.578,0 9.491,0C9.578,0 0.5,0 0.5,0L0.5,38.858L10.699,38.858L10.699,18.874L24.102,38.858L32.953,38.858Z" style="fill:white;fill-opacity:0.55;"/>
</svg>
