<?xml version="1.0" encoding="UTF-8"?><svg width="110px" height="39px" viewBox="0 0 110 39" version="1.1" xmlns="http://www.w3.org/2000/svg" xmlns:xlink="http://www.w3.org/1999/xlink">        <title>Logos/logo-nos</title>    <desc>Created with Sketch.</desc>    <g id="Logos/logo-nos" stroke="none" stroke-width="1" fill="none" fill-rule="evenodd">        <g transform="translate(0.500000, 0.000000)">            <path d="M109.411898,26.3678037 C109.411898,18.966315 105.831315,16.7380445 96.4326505,14.4775484 C91.6271443,13.3473003 90.2937832,12.7009285 90.2937832,11.3014956 C90.2937832,9.95655622 91.0405826,8.98716253 94.1381882,8.98716253 C97.9282035,8.98716253 101.238482,10.2792498 104.55039,12.5397458 C104.55039,12.5397458 108.948288,5.55111657 109.411898,4.35882471 C105.616688,1.56061551 101.025483,0 94.6719886,0 C85.6468863,0 79.9340171,4.790177 79.9340171,11.893374 C79.9340171,19.4282515 84.259787,21.9040954 93.2829351,24.0034089 C98.3014404,25.1881504 99.6364299,26.0482288 99.6364299,27.4463486 C99.6364299,29.2236251 98.4620039,29.8693404 94.7784881,29.8693404 C91.3076457,29.8693404 86.5562034,27.9863596 83.8321604,26.1027223 L78.8136551,34.2820021 C82.7117984,36.8648634 88.5314928,38.857816 94.5638606,38.857816 C103.534899,38.857816 109.411898,35.6196647 109.411898,26.6936159" id="Fill-6" fill="#949494"></path>            <path d="M37.0887789,19.428908 C37.0887789,8.69822193 45.8938442,0 56.7560883,0 C67.6189873,0 76.4253625,8.69822193 76.4253625,19.428908 C76.4253625,30.1589471 67.6189873,38.857816 56.7560883,38.857816 C45.8938442,38.857816 37.0887789,30.1589471 37.0887789,19.428908 M47.1084376,19.428908 C47.1084376,14.1651397 51.4281199,9.89770897 56.7560883,9.89770897 C62.0850391,9.89770897 66.4057038,14.1651397 66.4057038,19.428908 C66.4057038,24.6920294 62.0850391,28.9591366 56.7560883,28.9591366 C51.4281199,28.9591366 47.1084376,24.6920294 47.1084376,19.428908" id="Fill-7" fill="#E61E14"></path>            <path d="M32.4526815,38.857816 L32.4526815,1.31476852e-14 L22.2532673,2.62953704e-14 L22.2532673,19.9840197 C22.2532673,19.9840197 9.07763622,1.31476852e-14 8.99121912,1.31476852e-14 C9.07763622,1.31476852e-14 0,1.31476852e-14 0,1.31476852e-14 L0,38.857816 L10.1994142,38.857816 L10.1994142,18.8737964 L23.6019502,38.857816 L32.4526815,38.857816 Z" id="Fill-5" fill="#949494"></path>        </g>    </g></svg>