<?xml version="1.0" encoding="UTF-8" standalone="no"?>
<svg
   xmlns:dc="http://purl.org/dc/elements/1.1/"
   xmlns:cc="http://creativecommons.org/ns#"
   xmlns:rdf="http://www.w3.org/1999/02/22-rdf-syntax-ns#"
   xmlns:svg="http://www.w3.org/2000/svg"
   xmlns="http://www.w3.org/2000/svg"
   xmlns:sodipodi="http://sodipodi.sourceforge.net/DTD/sodipodi-0.dtd"
   xmlns:inkscape="http://www.inkscape.org/namespaces/inkscape"
   width="110px"
   height="39px"
   viewBox="0 0 110 39"
   version="1.1"
   id="svg12"
   sodipodi:docname="nos.svg"
   inkscape:version="0.92.4 (5da689c313, 2019-01-14)">
  <metadata
     id="metadata18">
    <rdf:RDF>
      <cc:Work
         rdf:about="">
        <dc:format>image/svg+xml</dc:format>
        <dc:type
           rdf:resource="http://purl.org/dc/dcmitype/StillImage" />
      </cc:Work>
    </rdf:RDF>
  </metadata>
  <defs
     id="defs16" />
  <sodipodi:namedview
     pagecolor="#ffffff"
     bordercolor="#666666"
     borderopacity="1"
     objecttolerance="10"
     gridtolerance="10"
     guidetolerance="10"
     inkscape:pageopacity="0"
     inkscape:pageshadow="2"
     inkscape:window-width="1821"
     inkscape:window-height="1051"
     id="namedview14"
     showgrid="false"
     inkscape:zoom="3.0818182"
     inkscape:cx="55"
     inkscape:cy="19.5"
     inkscape:window-x="90"
     inkscape:window-y="-9"
     inkscape:window-maximized="1"
     inkscape:current-layer="svg12" />
  <title
     id="title2">Logos/logo-nos</title>
  <desc
     id="desc4">Created with Sketch.</desc>
  <path
     d="m 109.9119,26.367804 c 0,-7.401489 -3.58058,-9.62976 -12.97925,-11.890256 -4.805506,-1.130248 -6.138867,-1.776619 -6.138867,-3.176052 0,-1.3449398 0.7468,-2.3143335 3.844405,-2.3143335 3.790015,0 7.100292,1.2920875 10.412202,3.5525835 0,0 4.3979,-6.9886294 4.86151,-8.1809213 C 106.11669,1.5606155 101.52548,0 95.171989,0 86.146886,0 80.434017,4.790177 80.434017,11.893374 c 0,7.534877 4.32577,10.010721 13.348918,12.110035 5.018505,1.184741 6.353495,2.04482 6.353495,3.44294 0,1.777276 -1.174426,2.422991 -4.857942,2.422991 -3.470842,0 -8.222285,-1.88298 -10.946328,-3.766618 l -5.018505,8.17928 c 3.898143,2.582861 9.717838,4.575814 15.750206,4.575814 8.971039,0 14.848039,-3.238151 14.848039,-12.1642"
     id="Fill-6"
     inkscape:connector-curvature="0"
     style="fill:#ffffff;fill-rule:evenodd;stroke:none;stroke-width:1;fill-opacity:1" />
  <path
     d="M 37.588779,19.428908 C 37.588779,8.6982219 46.393844,0 57.256088,0 c 10.862899,0 19.669275,8.6982219 19.669275,19.428908 0,10.730039 -8.806376,19.428908 -19.669275,19.428908 -10.862244,0 -19.667309,-8.698869 -19.667309,-19.428908 m 10.019659,0 c 0,-5.263768 4.319682,-9.531199 9.64765,-9.531199 5.328951,0 9.649616,4.267431 9.649616,9.531199 0,5.263121 -4.320665,9.530229 -9.649616,9.530229 -5.327968,0 -9.64765,-4.267108 -9.64765,-9.530229"
     id="Fill-7"
     inkscape:connector-curvature="0"
     style="fill:#e61e14;fill-rule:evenodd;stroke:none;stroke-width:1" />
  <path
     d="M 32.952681,38.857816 V 0 H 22.753267 V 19.98402 C 22.753267,19.98402 9.5776362,0 9.4912191,0 9.5776362,0 0.5,0 0.5,0 v 38.857816 h 10.199414 v -19.98402 l 13.402536,19.98402 z"
     id="Fill-5"
     inkscape:connector-curvature="0"
     style="fill:#ffffff;fill-rule:evenodd;stroke:none;stroke-width:1;fill-opacity:1" />
</svg>
