<?xml version="1.0" encoding="UTF-8" standalone="no"?>
<svg
   xmlns:dc="http://purl.org/dc/elements/1.1/"
   xmlns:cc="http://creativecommons.org/ns#"
   xmlns:rdf="http://www.w3.org/1999/02/22-rdf-syntax-ns#"
   xmlns:svg="http://www.w3.org/2000/svg"
   xmlns="http://www.w3.org/2000/svg"
   xmlns:sodipodi="http://sodipodi.sourceforge.net/DTD/sodipodi-0.dtd"
   xmlns:inkscape="http://www.inkscape.org/namespaces/inkscape"
   width="100%"
   height="100%"
   viewBox="0 0 101.05 33.42"
   version="1.1"
   xml:space="preserve"
   style="clip-rule:evenodd;fill-rule:evenodd;stroke-linejoin:round;stroke-miterlimit:2"
   id="svg3"
   sodipodi:docname="the-guardian.svg"
   inkscape:version="0.92.4 (5da689c313, 2019-01-14)"><metadata
   id="metadata9"><rdf:RDF><cc:Work
       rdf:about=""><dc:format>image/svg+xml</dc:format><dc:type
         rdf:resource="http://purl.org/dc/dcmitype/StillImage" /><dc:title></dc:title></cc:Work></rdf:RDF></metadata><defs
   id="defs7" /><sodipodi:namedview
   pagecolor="#ffffff"
   bordercolor="#666666"
   borderopacity="1"
   objecttolerance="10"
   gridtolerance="10"
   guidetolerance="10"
   inkscape:pageopacity="0"
   inkscape:pageshadow="2"
   inkscape:window-width="1821"
   inkscape:window-height="1051"
   id="namedview5"
   showgrid="false"
   scale-x="1.9"
   viewbox-width="101.05"
   viewbox-height="33.42"
   inkscape:zoom="1.1491525"
   inkscape:cx="147.5"
   inkscape:cy="222.5413"
   inkscape:window-x="90"
   inkscape:window-y="-9"
   inkscape:window-maximized="1"
   inkscape:current-layer="svg3" />
    <path
   id="Ebene_1"
   d="m 22.624987,17.306561 c 0.339176,-0.167303 0.712269,-0.368067 1.051444,-0.535371 0.135671,-0.06692 0.610516,-0.234225 0.678351,-0.368068 0.03392,-0.06692 0,-0.267685 0,-0.368067 V 3.186145 c 0,-0.033461 0.03392,-0.2676856 0,-0.3011463 -0.03392,-0.033461 -0.305258,0 -0.339175,0 h -0.746186 c -0.271341,0 -0.237423,0.033461 -0.407011,0.2342249 -0.644433,0.8365176 -1.288867,1.6730351 -1.9333,2.5430134 -0.305258,0.4015284 -0.610516,0.7695961 -0.881856,1.1711245 -0.203506,0.2676857 -0.203506,0.3011464 -0.576599,0.3011464 0.03392,-0.7361355 0.06784,-1.4722709 0.101753,-2.2084064 0.03392,-0.5353712 0.03392,-1.0707424 0.06784,-1.6061137 0,-0.2007642 0.03392,-0.4015284 0.03392,-0.6022926 0,-0.066921 -0.03392,-0.2676856 0,-0.3011463 0.06783,-0.1003821 0.678351,-0.033461 0.847938,-0.033461 h 12.685163 c 0.06784,0 0.373093,-0.033461 0.440928,0 0.06784,0.033461 0.03392,0.2342249 0.03392,0.334607 0.03392,0.4349891 0.03392,0.903439 0.06784,1.3384281 0.03392,0.9703603 0.06783,1.90726 0.13567,2.8776204 v 0.2007642 c -0.169587,0 -0.305258,0.033461 -0.440928,-0.066921 C 33.309015,6.9672044 33.207262,6.7664401 33.10551,6.6325973 32.698499,6.0972261 32.291489,5.5283942 31.85056,4.9930229 31.44355,4.4576517 31.036539,3.9222805 30.629529,3.3869092 30.561694,3.2865271 30.459941,3.0523022 30.324271,2.9853808 30.222518,2.9184594 30.019013,2.9519201 29.883343,2.9519201 h -0.542681 c -0.06783,0 -0.339176,-0.033461 -0.407011,0 -0.03392,0.033461 0,0.033461 -0.03392,0.1003821 -0.06783,0.2676856 0,0.6022927 0,0.8699783 V 15.566605 c 0,0.234225 -0.06783,0.568832 0,0.803057 0.06784,0.234225 0.610516,0.401528 0.847938,0.50191 0.237423,0.133843 0.644434,0.234225 0.847939,0.434989 0.06783,0.06692 0.13567,0.401529 0.06783,0.501911 -0.03392,0.03346 -0.203505,0 -0.237423,0 h -7.46186 c -0.06783,0 -0.305258,0.03346 -0.339176,0 -0.03392,-0.133843 0,-0.401529 0,-0.501911 z M 35.208398,16.704269 V 2.516931 c 0,-0.2007642 0.06783,-0.5019105 0,-0.7026748 C 35.140563,1.5800313 34.733552,1.5465706 34.496129,1.4461885 34.360459,1.4127278 33.919531,1.3123457 33.851696,1.1785029 V 0.91081729 h 0.101752 c 0.135671,-0.0669214 0.407011,-0.0669214 0.576599,-0.1003821 0.305258,-0.0669214 0.610516,-0.10038211 0.881856,-0.16730351 0.678351,-0.13384281 1.390619,-0.26768562 2.06897,-0.36806772 0.407011,-0.0669214 0.814022,-0.16730351 1.221032,-0.23422492 0.101753,0 0.508763,-0.0669214 0.542681,0 0.03392,0.0334607 0,0.16730351 0,0.20076421 V 7.1679686 c 1.288867,-1.2715067 3.527425,-1.9741815 5.325055,-1.5391923 1.560207,0.3680677 2.06897,1.8068779 2.06897,3.2791488 0.03392,1.8737989 0,3.7141379 0,5.5879369 v 1.505732 c 0,0.167303 -0.06783,0.568832 0,0.736135 0.03392,0.06692 0.169588,0.100382 0.237423,0.167304 0.237423,0.133843 0.508763,0.267685 0.746186,0.401528 0.03392,0.03346 0.13567,0.06692 0.13567,0.100382 0.03392,0.03346 0.03392,0.334607 0,0.368068 -0.03392,0.06692 -0.03392,0.03346 -0.13567,0.03346 -0.373093,0.06692 -0.780103,0 -1.119279,0 h -4.884127 c -0.03392,0 -0.203505,0.03346 -0.237423,0 -0.03392,-0.03346 -0.03392,-0.401529 0,-0.434989 0.101753,-0.133843 0.508764,-0.267686 0.644434,-0.368068 0.101752,-0.06692 0.40701,-0.167304 0.474845,-0.267686 0.06784,-0.100382 0,-0.468449 0,-0.568832 v -1.371888 c 0,-1.940721 0.03392,-3.914903 0,-5.8556232 0,-0.568832 -0.101752,-1.238046 -0.67835,-1.5391923 C 41.517062,7.23489 41.110051,7.2014293 40.770876,7.2014293 c -0.271341,0 -0.542681,0.066921 -0.780104,0.1338428 -0.203505,0.066921 -0.576598,0.2007642 -0.712269,0.3680677 -0.101752,0.1338428 -0.03392,0.334607 -0.03392,0.5019105 v 7.8967257 c 0,0.167304 -0.06783,0.501911 0,0.635753 0.03392,0.06692 0.169588,0.133843 0.27134,0.167304 0.237423,0.133843 0.542681,0.267685 0.780104,0.401528 0.03392,0.03346 0.101753,0.03346 0.101753,0.06692 0.03392,0.03346 0.03392,0.334607 0,0.368067 -0.03392,0.03346 -0.06784,0.03346 -0.135671,0.03346 -0.373093,0.03346 -0.780103,0 -1.153196,0 h -4.884127 c -0.03392,0 -0.203506,0.03346 -0.237423,0 -0.03392,-0.03346 0,-0.368068 0.03392,-0.434989 0.101753,-0.133843 0.474846,-0.267686 0.610516,-0.334607 0.237423,-0.100382 0.407011,-0.200764 0.576599,-0.301146 z m 16.110835,-4.617577 c 0.06784,1.472271 0.542681,3.111845 1.899383,3.914902 0.712268,0.401528 1.594124,0.535371 2.408146,0.46845 0.983608,-0.100382 1.79763,-0.568832 2.645568,-1.003821 0,0.133842 0.03392,0.368067 0,0.50191 -0.06783,0.133843 -0.237423,0.301147 -0.339175,0.401529 -0.13567,0.133842 -0.305258,0.301146 -0.474846,0.434989 -0.576598,0.46845 -1.221032,0.803057 -1.899383,1.037282 -1.288866,0.434989 -2.781238,0.401528 -4.104023,0.06692 -1.051444,-0.267686 -2.001135,-0.769596 -2.713404,-1.572653 -0.712268,-0.803057 -1.119279,-1.840339 -1.288866,-2.911081 -0.373094,-2.308789 0.06784,-4.9521841 2.001135,-6.4913763 1.695877,-1.3384281 4.409281,-1.6061137 6.410416,-0.8030569 2.442064,0.9703604 2.849074,3.7141379 2.849074,5.9894652 h -6.478251 c -0.305258,-0.03346 -0.610516,-0.03346 -0.915774,-0.03346 z m -0.06783,-0.568832 c 0.678351,-0.03346 1.356702,-0.06692 2.06897,-0.133843 0.407011,-0.03346 0.847939,-0.03346 1.25495,-0.06692 0.06783,0 0.237422,0 0.305258,-0.03346 0.101752,-0.06692 0.03392,-0.736136 0.03392,-0.869978 C 54.880576,9.2090714 54.846658,7.7368005 54.134389,6.6995187 53.625626,5.9633833 52.845523,6.0972261 52.370677,6.7664401 51.387068,8.0714075 51.251398,10.012128 51.251398,11.51786 Z M -0.09976979,23.731016 c 0,-1.873799 0.37309303,-3.81452 1.42453699,-5.387173 1.0175265,-1.539192 2.6455688,-2.543013 4.4092813,-3.044924 2.1368055,-0.602292 4.5110335,-0.535371 6.7156745,-0.133843 0.474846,0.100382 0.949691,0.200765 1.390619,0.334607 0.06784,0.03346 0.373093,0.100382 0.407011,0.167304 v 0.100382 c 0.101753,0.401528 0.03392,0.903439 0.03392,1.304967 0.03392,1.037282 0.03392,2.108025 0.06784,3.145306 -0.135671,0 -0.373093,0.03346 -0.474846,0 -0.06783,-0.03346 -0.13567,-0.200764 -0.169588,-0.267685 -0.27134,-0.401529 -0.542681,-0.803057 -0.780103,-1.238046 -0.576599,-0.903439 -1.187115,-1.806878 -1.763713,-2.710317 -0.305258,-0.501911 -1.153196,-0.501911 -1.6958773,-0.501911 -0.6105158,0 -1.2210317,0.100382 -1.7297949,0.401529 -1.1531966,0.702675 -1.6958774,2.074563 -2.0011353,3.312609 -0.4748457,1.974182 -0.4409282,4.048745 -0.3391755,6.056387 0.1017526,1.539193 0.2374228,3.178767 0.8479387,4.584117 0.373093,0.869978 1.0175264,1.639574 2.0011353,1.840338 0.305258,0.06692 0.6105159,0.06692 0.9496914,0.03346 0.2035053,-0.03346 0.9157736,-0.06692 1.0175266,-0.267686 0.03392,-0.06692 0,-0.234225 0,-0.301146 v -5.487555 c 0,-0.234225 0.06784,-0.334607 -0.13567,-0.46845 C 9.8380718,25.069444 9.5667314,24.935601 9.3293086,24.768298 9.1597208,24.667916 8.8205453,24.567534 8.7187927,24.433691 8.6509576,24.366769 8.61704,23.998702 8.6848751,23.93178 c 0.033918,-0.06692 0.033918,-0.03346 0.1356702,-0.03346 0.305258,-0.06692 0.7122685,0 1.0175265,0 h 5.2572202 c 0.339175,0 0.712268,-0.03346 1.051444,0 h 0.13567 c 0.03392,0.03346 0.03392,0.50191 0,0.568832 -0.06784,0.100382 -0.407011,0.234224 -0.542681,0.301146 -0.237423,0.133843 -0.508763,0.267685 -0.746186,0.434989 -0.27134,0.133843 -0.237423,0.133843 -0.237423,0.434989 v 5.454094 c 0,0.06692 0.03392,0.234225 0,0.301147 -0.06784,0.167303 -0.780103,0.267685 -0.983609,0.334607 -0.576598,0.167303 -1.187114,0.301146 -1.79763,0.401528 -1.187114,0.200764 -2.3742281,0.267686 -3.5613422,0.234225 C 6.5141521,32.296956 4.5130167,31.895427 2.9528095,30.757763 1.5961076,29.787403 0.71425136,28.315132 0.30724079,26.709019 0.00198286,25.772119 -0.09976979,24.734837 -0.09976979,23.731016 Z M 15.53622,20.686092 c 0,-0.06692 -0.03392,-0.334607 0,-0.368068 0.03392,-0.03346 0.06784,0 0.101752,-0.03346 0.203506,-0.100382 0.474846,-0.100382 0.712269,-0.133843 0.780104,-0.133843 1.560207,-0.267686 2.374228,-0.401528 0.610516,-0.100383 1.221032,-0.234225 1.79763,-0.301147 0.169588,-0.03346 0.373093,-0.03346 0.542681,0.03346 0.169588,0.03346 0.101753,0 0.13567,0.133843 0.06783,0.401528 0,0.869978 0,1.271506 v 6.993287 c 0,0.836518 -0.237422,2.37571 0.576599,2.87762 0.40701,0.267686 0.983609,0.267686 1.458454,0.167304 0.373093,-0.06692 1.085362,-0.334607 1.221032,-0.736135 0.03392,-0.100383 0,-0.234225 0,-0.334607 v -8.197872 c 0,-0.06692 0.03392,-0.267686 0,-0.334607 -0.101753,-0.100383 -0.440928,-0.200765 -0.542681,-0.234225 -0.203505,-0.06692 -0.373093,-0.167304 -0.576598,-0.234225 -0.06783,-0.03346 -0.305258,-0.06692 -0.339176,-0.133843 -0.03392,-0.03346 -0.03392,-0.334607 0,-0.368068 0.03392,-0.03346 0.03392,0 0.06783,-0.03346 0.169588,-0.100382 0.474846,-0.06692 0.644434,-0.100382 1.390619,-0.234225 2.815156,-0.535371 4.239693,-0.736135 0.169588,-0.03346 0.339176,-0.03346 0.508764,0 0.169587,0.03346 0.101752,-0.03346 0.13567,0.133843 0.06783,0.334607 0,0.803057 0,1.171124 v 9.636682 c 0,0.100383 -0.03392,0.267686 0,0.401529 0.03392,0.100382 0,0.06692 0.169588,0.133843 0.339175,0.133842 0.712268,0.301146 1.051444,0.434989 0.101752,0.03346 0.13567,0.03346 0.169587,0.100382 0.03392,0.06692 0.03392,0.301146 0,0.301146 -0.06784,0.06692 -0.40701,0.03346 -0.474845,0.06692 -0.746186,0.100382 -1.492372,0.167303 -2.272476,0.267685 -0.678351,0.06692 -1.356702,0.167304 -2.001135,0.234225 -0.135671,0.03346 -0.271341,0.03346 -0.407011,0 -0.06783,0 -0.27134,0 -0.305258,-0.03346 -0.03392,-0.06692 0,-0.334607 0,-0.401528 v -0.568832 c 0,-0.100382 0.06783,-0.368068 0,-0.46845 -0.06784,-0.100382 -0.203505,0.03346 -0.305258,0.100382 -0.27134,0.234225 -0.576598,0.46845 -0.881856,0.635754 -1.119279,0.669214 -2.509899,0.97036 -3.798765,0.702674 -0.949692,-0.200764 -1.763713,-0.736135 -2.170724,-1.639574 -0.305258,-0.635753 -0.373093,-1.338428 -0.373093,-2.007642 v -7.026747 c 0,-0.06692 0.03392,-0.267686 0,-0.334607 -0.06783,-0.100383 -0.474845,-0.200765 -0.576598,-0.267686 -0.339175,-0.133843 -0.610516,-0.234225 -0.881856,-0.368068 z m 31.984248,-1.271507 c 0.06784,0 0.373093,0 0.40701,0.06692 0.03392,0.03346 0,0.267686 0,0.301146 v 2.944542 c 0,0.100382 -0.03392,0.267686 0,0.368068 v 0.06692 c 0.13567,0.133843 0.169588,-0.301146 0.203505,-0.334607 0.305258,-1.238046 0.881857,-2.676856 2.170724,-3.178767 0.237422,-0.100382 0.474845,-0.133842 0.712268,-0.167303 0.203505,0 0.780104,-0.06692 0.881856,0.100382 0.03392,0.06692 0,0.234225 0,0.301146 v 3.412992 c -0.814021,-0.167304 -1.729795,-0.133843 -2.509898,0.03346 -0.373093,0.06692 -0.712269,0.167303 -1.051444,0.334607 -0.169588,0.06692 -0.203506,0.03346 -0.237423,0.167303 -0.03392,0.133843 0,0.368068 0,0.501911 v 6.457915 c 0,0.06692 -0.03392,0.167304 0,0.234225 0.06784,0.100382 0.305258,0.167304 0.40701,0.200764 0.169588,0.100382 0.373094,0.200765 0.542681,0.301147 0.06784,0.03346 0.169588,0.06692 0.203506,0.133842 0.03392,0.03346 0.03392,0.43499 0,0.46845 -0.03392,0.03346 -0.237423,0 -0.305258,0 h -5.630313 c -0.169588,0 -0.474846,0.06692 -0.610516,0 h -0.101753 c -0.03392,-0.03346 0,-0.401528 0,-0.434989 0.06783,-0.200764 0.508763,-0.334607 0.712269,-0.434989 0.13567,-0.06692 0.40701,-0.167304 0.474845,-0.301146 0.03392,-0.06692 0,-0.267686 0,-0.334607 v -9.302075 c 0,-0.03346 0.03392,-0.200765 0,-0.234225 -0.03392,-0.03346 -0.203505,-0.06692 -0.27134,-0.06692 -0.203505,-0.06692 -0.407011,-0.133843 -0.610516,-0.167303 -0.203505,-0.06692 -0.712268,-0.100382 -0.542681,-0.434989 0.03392,-0.100383 0.169588,-0.06692 0.305258,-0.100383 1.492372,-0.267685 2.950827,-0.535371 4.443199,-0.803056 0.13567,-0.06692 0.27134,-0.06692 0.407011,-0.100383 z m 12.786915,0.301147 V 16.26928 c 0,-0.100383 0.03392,-0.301147 0,-0.401529 -0.03392,-0.06692 -0.169588,-0.100382 -0.27134,-0.133843 -0.271341,-0.100382 -0.542681,-0.200764 -0.847939,-0.301146 -0.203505,-0.06692 -0.305258,-0.03346 -0.305258,-0.267686 0,-0.200764 -0.03392,-0.133842 0.13567,-0.167303 0.373093,-0.133843 0.814022,-0.133843 1.187115,-0.200764 1.119279,-0.200765 2.20464,-0.401529 3.323919,-0.602293 0.237423,-0.03346 0.474846,-0.100382 0.712269,-0.06692 0.27134,0.03346 0.305258,-0.03346 0.305258,0.200764 0.03392,0.535371 0,1.104203 0,1.639574 v 14.655788 c 0,0.133842 -0.03392,0.133842 0.06784,0.200764 0.203505,0.133843 0.542681,0.200764 0.746186,0.267685 0.13567,0.03346 0.508763,0.100383 0.576598,0.200765 0.03392,0.03346 0.03392,0.401528 0,0.434989 -0.03392,0.03346 -0.237423,0.03346 -0.27134,0.03346 -0.474846,0.06692 -0.915774,0.133842 -1.39062,0.167303 -1.051444,0.133843 -2.102888,0.267686 -3.188249,0.401528 -0.169588,0.03346 -0.576599,0.100383 -0.644434,-0.03346 -0.06784,-0.133843 0,-0.568832 0,-0.702675 0,-0.100382 0.06784,-0.535371 0,-0.602293 -0.06784,-0.06692 -0.814021,0.602293 -0.915773,0.669214 -0.407011,0.267686 -0.847939,0.46845 -1.322785,0.602293 -0.746186,0.200764 -1.594125,0.200764 -2.340311,0.03346 -3.256089,-0.736135 -3.93444,-4.550655 -3.6631,-7.327893 0.13567,-1.472271 0.610516,-2.944542 1.628043,-4.015284 0.949691,-0.970361 2.238558,-1.472271 3.561342,-1.572653 1.017527,-0.100382 2.001135,-0.03346 2.916909,0.334607 z m 0,10.673964 v -9.770525 c 0,-0.200764 -0.03392,-0.234225 -0.27134,-0.368068 -0.474846,-0.267686 -1.085362,-0.368068 -1.594125,-0.167303 -0.780104,0.301146 -1.153197,1.204585 -1.356702,1.94072 -0.40701,1.338428 -0.440928,2.777239 -0.40701,4.182588 0.03392,1.204585 0.06783,2.676856 0.746186,3.747599 0.610515,0.936899 2.001135,1.171124 2.882991,0.434989 z M 71.534092,19.414585 c 0.169587,0.03346 0.373093,-0.03346 0.440928,0.133843 0.03392,0.100382 0,0.334607 0,0.434989 v 10.4732 c 0,0.133843 -0.03392,0.334607 0,0.46845 0.03392,0.133843 0.169587,0.167303 0.305258,0.234225 0.203505,0.100382 0.373093,0.200764 0.576598,0.301146 0.06784,0.03346 0.27134,0.100382 0.305258,0.200764 0,0.03346 0.03392,0.43499 0,0.46845 h -0.101753 c -0.203505,0.03346 -0.474845,0 -0.712268,0 h -5.155468 c -0.13567,0 -0.508763,0.06692 -0.610515,0 -0.06784,-0.03346 -0.101753,-0.434989 -0.03392,-0.50191 0.06783,-0.100382 0.305258,-0.167304 0.407011,-0.200764 0.203505,-0.100383 0.40701,-0.234225 0.610515,-0.334608 0.169588,-0.100382 0.135671,-0.06692 0.135671,-0.200764 0.06784,-0.50191 0,-1.070742 0,-1.572653 v -7.461736 c 0,-0.133843 0.03392,-0.368068 0,-0.501911 -0.03392,-0.133843 -0.203506,-0.133843 -0.339176,-0.200764 -0.237423,-0.100382 -0.440928,-0.167304 -0.678351,-0.267686 -0.06784,-0.03346 -0.339175,-0.06692 -0.40701,-0.167303 -0.03392,-0.03346 -0.03392,-0.368068 0,-0.401529 0.03392,-0.03346 0.101752,0 0.13567,-0.03346 0.27134,-0.100382 0.576598,-0.100382 0.881856,-0.167304 0.440928,-0.06692 0.847939,-0.167303 1.288867,-0.234225 0.847939,-0.133842 1.66196,-0.301146 2.509898,-0.434989 0.169588,0.03346 0.305258,0 0.440929,-0.03346 z m 0.474845,-3.111845 c -0.06784,2.007642 -2.815156,2.877621 -4.070106,1.304968 -0.576598,-0.736136 -0.610515,-1.739957 -0.101752,-2.509553 0.508763,-0.769596 1.492372,-1.104203 2.408146,-0.903439 1.017526,0.200764 1.763712,1.070742 1.763712,2.108024 z m 14.855886,14.689248 v -9.603221 c 0,-0.03346 0.03392,-0.200764 0,-0.234225 -0.03392,-0.06692 -0.237423,-0.100382 -0.305258,-0.100382 -0.203505,-0.06692 -0.40701,-0.133843 -0.610516,-0.200764 -0.101752,-0.03346 -0.373093,-0.06692 -0.440928,-0.167304 -0.06784,-0.06692 -0.03392,-0.234225 -0.03392,-0.334607 0,-0.200764 0.06784,-0.167303 0.27134,-0.200764 l 4.477117,-0.803057 c 0.13567,-0.03346 0.237422,-0.06692 0.373093,-0.06692 0.06784,0 0.40701,0 0.474845,0.03346 0.03392,0.03346 0,0.234225 0,0.301147 v 0.635753 c 0,0.100382 -0.06784,0.401528 0,0.501911 0.06784,0.133842 0.203506,0 0.305258,-0.100383 0.305258,-0.234224 0.610516,-0.434989 0.949692,-0.602292 1.221031,-0.669214 2.679486,-0.970361 4.070105,-0.769596 0.949692,0.133842 1.729795,0.635753 2.068971,1.539192 0.237423,0.635753 0.27134,1.304967 0.27134,1.974181 v 7.62904 c 0,0.133843 -0.03392,0.368068 0,0.501911 0.03392,0.133843 0.13567,0.167303 0.305258,0.234225 0.169588,0.100382 0.373093,0.200764 0.542681,0.301146 0.06784,0.03346 0.305258,0.100382 0.339175,0.200764 0.03392,0.06692 0.03392,0.401529 0,0.43499 -0.03392,0.06692 0.03392,0 -0.06784,0.03346 -0.13567,0.06692 -0.440928,0 -0.610516,0 h -4.850209 c -0.203505,0 -0.983609,0.100382 -1.085362,-0.03346 -0.03392,-0.03346 -0.03392,-0.401529 0,-0.46845 0.03392,-0.06692 0.237423,-0.133843 0.305258,-0.167304 0.203506,-0.100382 0.373093,-0.200764 0.576599,-0.301146 0.06784,-0.03346 0.27134,-0.100382 0.305258,-0.167304 0.03392,-0.06692 0,-0.200764 0,-0.267685 v -7.59558 c 0,-0.535371 0.03392,-1.137663 -0.305258,-1.606113 -0.271341,-0.401529 -0.746186,-0.501911 -1.221032,-0.535372 -0.373093,0 -0.712269,0.03346 -1.051444,0.133843 -0.169588,0.06692 -0.678351,0.200765 -0.780104,0.401529 -0.03392,0.06692 0,0.200764 0,0.267685 v 8.666322 c 0,0.100382 -0.03392,0.334607 0,0.434989 0.03392,0.133843 0.237423,0.167304 0.339176,0.234225 0.169588,0.100382 0.373093,0.200764 0.542681,0.301147 0.06784,0.03346 0.203505,0.100382 0.237422,0.133842 0.03392,0.03346 0.03392,0.434989 0,0.46845 0,0.03346 -0.03392,0 -0.06784,0 -0.13567,0.06692 -0.474845,0 -0.610516,0 h -5.698148 c -0.169587,0 -0.203505,0.03346 -0.237422,-0.06692 -0.03392,-0.06692 -0.03392,-0.368068 0,-0.434989 0.03392,-0.06692 0.237422,-0.133843 0.305257,-0.167304 0.339176,-0.03346 0.610516,-0.200764 0.915774,-0.368068 z m -7.19052,-6.156769 c 0,-0.869978 0.03392,-1.773417 -0.03392,-2.676856 -0.101753,-0.97036 -0.373093,-2.041103 -1.492373,-2.241867 -0.339175,-0.06692 -0.949691,-0.167303 -1.187114,0.100382 -0.237423,0.234225 -0.40701,0.568832 -0.610516,0.836518 -0.576598,0.769596 -1.153196,1.539192 -1.729795,2.308788 -0.101752,0.133843 -0.203505,0.401529 -0.339175,0.46845 -0.03392,0.03346 -0.373093,0.03346 -0.373093,0 -0.03392,-0.03346 0,-0.267686 0,-0.334607 V 20.58571 c 0,-0.100382 -0.03392,-0.267686 0,-0.368068 0.06784,-0.167303 0.814021,-0.267685 0.983609,-0.334607 0.949691,-0.234225 1.9333,-0.401528 2.916909,-0.46845 1.390619,-0.100382 2.950827,-0.06692 4.239693,0.535372 1.017527,0.46845 1.66196,1.304967 1.831548,2.37571 0.101753,0.535371 0.06784,1.137663 0.06784,1.673035 v 6.69214 c 0,0.100382 -0.06784,0.368068 0,0.434989 0.03392,0.03346 0.203505,0.06692 0.237423,0.06692 0.27134,0.06692 0.508763,0.133842 0.780104,0.200764 0.169587,0.03346 0.203505,0.03346 0.203505,0.200764 0,0.167304 0.03392,0.167304 -0.169588,0.234225 -0.237423,0.100382 -0.474846,0.200764 -0.712268,0.267686 -1.25495,0.368067 -3.222167,0.468449 -4.137941,-0.669214 -0.06783,-0.100383 -0.271341,-0.535372 -0.373093,-0.568832 -0.13567,-0.03346 -0.542681,0.50191 -0.678351,0.602292 -0.542681,0.46845 -1.254949,0.736136 -1.967218,0.836518 -1.322784,0.167303 -2.747321,-0.100382 -3.561343,-1.238046 -0.67835,-0.970361 -0.814021,-2.476092 -0.305257,-3.546835 0.915773,-2.041102 3.629177,-2.241867 5.596395,-2.576474 0.237423,0 0.508763,-0.06692 0.814021,-0.100382 z m 0,5.554477 v -4.952184 c -1.017526,0.06692 -2.06897,0.133843 -2.442063,1.238046 -0.271341,0.736135 -0.271341,1.606114 -0.169588,2.37571 0.06784,0.535371 0.203505,1.204585 0.712268,1.539192 0.542681,0.368068 1.458455,0.301146 1.899383,-0.200764 z M 36.734687,24.835219 c 0,-0.869978 0.03392,-1.773417 -0.03392,-2.676856 -0.101753,-0.97036 -0.373093,-2.041103 -1.492372,-2.241867 -0.339176,-0.06692 -0.949692,-0.167303 -1.187114,0.100382 -0.237423,0.234225 -0.407011,0.568832 -0.610516,0.836518 -0.576599,0.769596 -1.153197,1.539192 -1.729795,2.308788 -0.101753,0.133843 -0.203506,0.401529 -0.339176,0.46845 -0.03392,0.03346 -0.373093,0.03346 -0.373093,0 -0.03392,-0.03346 0,-0.267686 0,-0.334607 v -2.676856 c 0,-0.100382 -0.03392,-0.267686 0,-0.368068 0.06784,-0.167303 0.780104,-0.267686 0.983609,-0.334607 0.949691,-0.234225 1.9333,-0.401528 2.882992,-0.46845 1.390619,-0.100382 2.950826,-0.06692 4.239693,0.535371 1.017527,0.46845 1.66196,1.304968 1.831548,2.37571 0.101752,0.535372 0.06784,1.137664 0.06784,1.673035 v 6.692141 c 0,0.100382 -0.06784,0.368067 0,0.434989 0.03392,0.03346 0.203505,0.06692 0.237423,0.06692 0.27134,0.06692 0.508763,0.133843 0.780103,0.200765 0.169588,0.03346 0.203506,0.03346 0.203506,0.200764 0,0.167303 0.03392,0.167303 -0.169588,0.234225 -0.237423,0.100382 -0.474846,0.200764 -0.712269,0.267685 -1.254949,0.368068 -3.222167,0.46845 -4.137941,-0.669214 -0.06784,-0.100382 -0.27134,-0.535371 -0.373093,-0.568832 -0.13567,-0.03346 -0.54268,0.501911 -0.644433,0.602293 -0.542681,0.46845 -1.254949,0.736135 -1.967218,0.836517 -1.322784,0.167304 -2.747321,-0.100382 -3.561342,-1.238046 -0.678351,-0.97036 -0.814021,-2.476091 -0.305258,-3.546834 0.915774,-2.041103 3.629177,-2.241867 5.562478,-2.576474 0.27134,-0.03346 0.54268,-0.100382 0.847938,-0.133843 z m 0,5.554477 v -4.952184 c -1.017526,0.06692 -2.06897,0.133843 -2.442063,1.238046 -0.27134,0.736135 -0.27134,1.606114 -0.169588,2.37571 0.06784,0.535371 0.203505,1.204585 0.712269,1.539192 0.54268,0.368068 1.458454,0.301146 1.899382,-0.200764 z"
   style="fill:#ffffff;fill-rule:nonzero;stroke:#ffffff;stroke-width:1px"
   inkscape:connector-curvature="0" />
</svg>