<?xml version="1.0" encoding="UTF-8" standalone="no"?>
<!DOCTYPE svg PUBLIC "-//W3C//DTD SVG 1.1//EN" "http://www.w3.org/Graphics/SVG/1.1/DTD/svg11.dtd">
<svg width="100%" height="100%" viewBox="0 0 102 34" version="1.1" xmlns="http://www.w3.org/2000/svg" xmlns:xlink="http://www.w3.org/1999/xlink" xml:space="preserve" xmlns:serif="http://www.serif.com/" style="fill-rule:evenodd;clip-rule:evenodd;stroke-linejoin:round;stroke-miterlimit:2;">
    <path id="Ebene_1" d="M23.225,17.798C23.564,17.631 23.937,17.43 24.276,17.262C24.412,17.196 24.887,17.028 24.955,16.894C24.988,16.827 24.955,16.627 24.955,16.526L24.955,3.677C24.955,3.644 24.988,3.41 24.955,3.376C24.921,3.343 24.649,3.376 24.615,3.376L23.869,3.376C23.598,3.376 23.632,3.41 23.462,3.61C22.818,4.447 22.173,5.284 21.529,6.154C21.224,6.555 20.918,6.923 20.647,7.325C20.444,7.592 20.444,7.626 20.07,7.626C20.104,6.89 20.138,6.154 20.172,5.417C20.206,4.882 20.206,4.347 20.24,3.811C20.24,3.61 20.274,3.41 20.274,3.209C20.274,3.142 20.24,2.941 20.274,2.908C20.342,2.807 20.952,2.874 21.122,2.874L33.807,2.874C33.875,2.874 34.18,2.841 34.248,2.874C34.316,2.908 34.282,3.109 34.282,3.209C34.316,3.644 34.316,4.112 34.35,4.547C34.384,5.518 34.418,6.455 34.485,7.425L34.485,7.626C34.316,7.626 34.18,7.659 34.044,7.559C33.909,7.458 33.807,7.258 33.705,7.124C33.298,6.588 32.891,6.02 32.45,5.484C32.043,4.949 31.636,4.414 31.229,3.878C31.161,3.778 31.06,3.544 30.924,3.477C30.822,3.41 30.619,3.443 30.483,3.443L29.94,3.443C29.873,3.443 29.601,3.41 29.533,3.443C29.5,3.477 29.533,3.477 29.5,3.544C29.432,3.811 29.5,4.146 29.5,4.414L29.5,16.058C29.5,16.292 29.432,16.627 29.5,16.861C29.567,17.095 30.11,17.262 30.347,17.363C30.585,17.497 30.992,17.597 31.195,17.798C31.263,17.865 31.331,18.199 31.263,18.3C31.229,18.333 31.06,18.3 31.026,18.3L23.564,18.3C23.496,18.3 23.259,18.333 23.225,18.3C23.191,18.166 23.225,17.898 23.225,17.798L23.225,17.798ZM35.808,17.196L35.808,3.008C35.808,2.807 35.876,2.506 35.808,2.306C35.74,2.071 35.333,2.038 35.096,1.937C34.96,1.904 34.519,1.804 34.451,1.67L34.451,1.402L34.553,1.402C34.689,1.335 34.96,1.335 35.13,1.302C35.435,1.235 35.74,1.201 36.012,1.134C36.69,1.001 37.402,0.867 38.081,0.766C38.488,0.699 38.895,0.599 39.302,0.532C39.403,0.532 39.81,0.465 39.844,0.532C39.878,0.566 39.844,0.699 39.844,0.733L39.844,7.659C41.133,6.388 43.372,5.685 45.169,6.12C46.73,6.488 47.238,7.927 47.238,9.399C47.272,11.273 47.238,13.113 47.238,14.987L47.238,16.493C47.238,16.66 47.171,17.062 47.238,17.229C47.272,17.296 47.408,17.329 47.476,17.396C47.713,17.53 47.985,17.664 48.222,17.798C48.256,17.831 48.358,17.865 48.358,17.898C48.392,17.932 48.392,18.233 48.358,18.266C48.324,18.333 48.324,18.3 48.222,18.3C47.849,18.367 47.442,18.3 47.103,18.3L42.219,18.3C42.185,18.3 42.015,18.333 41.981,18.3C41.947,18.266 41.947,17.898 41.981,17.865C42.083,17.731 42.49,17.597 42.626,17.497C42.727,17.43 43.033,17.329 43.1,17.229C43.168,17.129 43.1,16.761 43.1,16.66L43.1,15.288C43.1,13.348 43.134,11.373 43.1,9.433C43.1,8.864 42.999,8.195 42.422,7.893C42.117,7.726 41.71,7.693 41.371,7.693C41.099,7.693 40.828,7.76 40.591,7.827C40.387,7.893 40.014,8.027 39.878,8.195C39.777,8.328 39.844,8.529 39.844,8.697L39.844,16.593C39.844,16.761 39.777,17.095 39.844,17.229C39.878,17.296 40.014,17.363 40.116,17.396C40.353,17.53 40.658,17.664 40.896,17.798C40.93,17.831 40.998,17.831 40.998,17.865C41.031,17.898 41.031,18.199 40.998,18.233C40.964,18.266 40.93,18.266 40.862,18.266C40.489,18.3 40.082,18.266 39.709,18.266L34.825,18.266C34.791,18.266 34.621,18.3 34.587,18.266C34.553,18.233 34.587,17.898 34.621,17.831C34.723,17.697 35.096,17.564 35.232,17.497C35.469,17.396 35.639,17.296 35.808,17.196L35.808,17.196ZM51.919,12.578C51.987,14.05 52.462,15.69 53.818,16.493C54.531,16.894 55.413,17.028 56.227,16.961C57.21,16.861 58.024,16.392 58.872,15.957C58.872,16.091 58.906,16.326 58.872,16.459C58.804,16.593 58.635,16.761 58.533,16.861C58.397,16.995 58.228,17.162 58.058,17.296C57.481,17.764 56.837,18.099 56.159,18.333C54.87,18.768 53.377,18.735 52.055,18.4C51.003,18.132 50.054,17.631 49.341,16.827C48.629,16.024 48.222,14.987 48.052,13.916C47.679,11.608 48.12,8.964 50.054,7.425C51.749,6.087 54.463,5.819 56.464,6.622C58.906,7.592 59.313,10.336 59.313,12.611L52.835,12.611C52.53,12.578 52.224,12.578 51.919,12.578L51.919,12.578ZM51.851,12.009C52.53,11.976 53.208,11.942 53.92,11.875C54.327,11.842 54.768,11.842 55.175,11.808C55.243,11.808 55.413,11.808 55.48,11.775C55.582,11.708 55.514,11.039 55.514,10.905C55.48,9.7 55.446,8.228 54.734,7.191C54.225,6.455 53.445,6.588 52.97,7.258C51.987,8.563 51.851,10.503 51.851,12.009L51.851,12.009ZM0.5,24.222C0.5,22.348 0.873,20.408 1.925,18.835C2.942,17.296 4.57,16.292 6.334,15.79C8.471,15.188 10.845,15.255 13.049,15.656C13.524,15.757 13.999,15.857 14.44,15.991C14.508,16.024 14.813,16.091 14.847,16.158L14.847,16.259C14.949,16.66 14.881,17.162 14.881,17.564C14.915,18.601 14.915,19.672 14.949,20.709C14.813,20.709 14.576,20.742 14.474,20.709C14.406,20.675 14.338,20.508 14.304,20.441C14.033,20.04 13.762,19.638 13.524,19.203C12.948,18.3 12.337,17.396 11.761,16.493C11.455,15.991 10.607,15.991 10.065,15.991C9.454,15.991 8.844,16.091 8.335,16.392C7.182,17.095 6.639,18.467 6.334,19.705C5.859,21.679 5.893,23.754 5.995,25.761C6.096,27.301 6.232,28.94 6.843,30.346C7.216,31.216 7.86,31.985 8.844,32.186C9.149,32.253 9.454,32.253 9.793,32.219C9.997,32.186 10.709,32.152 10.811,31.952C10.845,31.885 10.811,31.717 10.811,31.651L10.811,26.163C10.811,25.929 10.879,25.828 10.675,25.695C10.438,25.561 10.167,25.427 9.929,25.26C9.759,25.159 9.42,25.059 9.319,24.925C9.251,24.858 9.217,24.49 9.285,24.423C9.319,24.356 9.319,24.39 9.42,24.39C9.726,24.323 10.133,24.39 10.438,24.39L15.695,24.39C16.034,24.39 16.407,24.356 16.747,24.39L16.882,24.39C16.916,24.423 16.916,24.892 16.882,24.958C16.814,25.059 16.475,25.193 16.339,25.26C16.102,25.393 15.831,25.527 15.593,25.695C15.322,25.828 15.356,25.828 15.356,26.13L15.356,31.584C15.356,31.651 15.39,31.818 15.356,31.885C15.288,32.052 14.576,32.152 14.372,32.219C13.796,32.387 13.185,32.521 12.575,32.621C11.388,32.822 10.2,32.889 9.013,32.855C7.114,32.788 5.113,32.387 3.553,31.249C2.196,30.279 1.314,28.806 0.907,27.2C0.602,26.263 0.5,25.226 0.5,24.222ZM16.136,21.177C16.136,21.11 16.102,20.843 16.136,20.809C16.17,20.776 16.204,20.809 16.238,20.776C16.441,20.675 16.713,20.675 16.95,20.642C17.73,20.508 18.51,20.374 19.324,20.24C19.935,20.14 20.545,20.006 21.122,19.939C21.291,19.906 21.495,19.906 21.665,19.973C21.834,20.006 21.766,19.973 21.8,20.107C21.868,20.508 21.8,20.977 21.8,21.378L21.8,28.371C21.8,29.208 21.563,30.747 22.377,31.249C22.784,31.517 23.36,31.517 23.835,31.416C24.208,31.349 24.921,31.082 25.056,30.68C25.09,30.58 25.056,30.446 25.056,30.346L25.056,22.148C25.056,22.081 25.09,21.88 25.056,21.813C24.955,21.713 24.615,21.612 24.514,21.579C24.31,21.512 24.141,21.412 23.937,21.345C23.869,21.311 23.632,21.278 23.598,21.211C23.564,21.177 23.564,20.876 23.598,20.843C23.632,20.809 23.632,20.843 23.666,20.809C23.835,20.709 24.141,20.742 24.31,20.709C25.701,20.475 27.125,20.174 28.55,19.973C28.719,19.939 28.889,19.939 29.059,19.973C29.228,20.006 29.16,19.939 29.194,20.107C29.262,20.441 29.194,20.91 29.194,21.278L29.194,30.914C29.194,31.015 29.16,31.182 29.194,31.316C29.228,31.416 29.194,31.383 29.364,31.45C29.703,31.584 30.076,31.751 30.415,31.885C30.517,31.918 30.551,31.918 30.585,31.985C30.619,32.052 30.619,32.286 30.585,32.286C30.517,32.353 30.178,32.32 30.11,32.353C29.364,32.454 28.618,32.521 27.838,32.621C27.159,32.688 26.481,32.788 25.836,32.855C25.701,32.889 25.565,32.889 25.429,32.855C25.362,32.855 25.158,32.855 25.124,32.822C25.09,32.755 25.124,32.487 25.124,32.42L25.124,31.851C25.124,31.751 25.192,31.483 25.124,31.383C25.056,31.282 24.921,31.416 24.819,31.483C24.548,31.717 24.242,31.952 23.937,32.119C22.818,32.788 21.427,33.089 20.138,32.822C19.189,32.621 18.375,32.086 17.968,31.182C17.662,30.546 17.594,29.844 17.594,29.174L17.594,22.148C17.594,22.081 17.628,21.88 17.594,21.813C17.527,21.713 17.12,21.612 17.018,21.545C16.679,21.412 16.407,21.311 16.136,21.177L16.136,21.177ZM48.12,19.906C48.188,19.906 48.493,19.906 48.527,19.973C48.561,20.006 48.527,20.24 48.527,20.274L48.527,23.218C48.527,23.319 48.493,23.486 48.527,23.587L48.527,23.653C48.663,23.787 48.697,23.352 48.731,23.319C49.036,22.081 49.613,20.642 50.901,20.14C51.139,20.04 51.376,20.006 51.614,19.973C51.817,19.973 52.394,19.906 52.496,20.073C52.53,20.14 52.496,20.307 52.496,20.374L52.496,23.787C51.682,23.62 50.766,23.653 49.986,23.821C49.613,23.888 49.273,23.988 48.934,24.155C48.765,24.222 48.731,24.189 48.697,24.323C48.663,24.457 48.697,24.691 48.697,24.825L48.697,31.282C48.697,31.349 48.663,31.45 48.697,31.517C48.765,31.617 49.002,31.684 49.104,31.717C49.273,31.818 49.477,31.918 49.647,32.019C49.714,32.052 49.816,32.086 49.85,32.152C49.884,32.186 49.884,32.587 49.85,32.621C49.816,32.654 49.613,32.621 49.545,32.621L43.914,32.621C43.745,32.621 43.44,32.688 43.304,32.621L43.202,32.621C43.168,32.587 43.202,32.219 43.202,32.186C43.27,31.985 43.711,31.851 43.914,31.751C44.05,31.684 44.321,31.584 44.389,31.45C44.423,31.383 44.389,31.182 44.389,31.115L44.389,21.813C44.389,21.78 44.423,21.612 44.389,21.579C44.355,21.545 44.186,21.512 44.118,21.512C43.914,21.445 43.711,21.378 43.507,21.345C43.304,21.278 42.795,21.244 42.965,20.91C42.999,20.809 43.134,20.843 43.27,20.809C44.762,20.542 46.221,20.274 47.713,20.006C47.849,19.939 47.985,19.939 48.12,19.906L48.12,19.906ZM60.907,20.207L60.907,16.761C60.907,16.66 60.941,16.459 60.907,16.359C60.873,16.292 60.738,16.259 60.636,16.225C60.364,16.125 60.093,16.024 59.788,15.924C59.584,15.857 59.483,15.891 59.483,15.656C59.483,15.456 59.449,15.523 59.618,15.489C59.991,15.355 60.432,15.355 60.805,15.288C61.925,15.088 63.01,14.887 64.129,14.686C64.367,14.653 64.604,14.586 64.842,14.619C65.113,14.653 65.147,14.586 65.147,14.82C65.181,15.355 65.147,15.924 65.147,16.459L65.147,31.115C65.147,31.249 65.113,31.249 65.215,31.316C65.418,31.45 65.757,31.517 65.961,31.584C66.097,31.617 66.47,31.684 66.537,31.784C66.571,31.818 66.571,32.186 66.537,32.219C66.504,32.253 66.3,32.253 66.266,32.253C65.791,32.32 65.35,32.387 64.876,32.42C63.824,32.554 62.773,32.688 61.687,32.822C61.518,32.855 61.111,32.922 61.043,32.788C60.975,32.654 61.043,32.219 61.043,32.086C61.043,31.985 61.111,31.55 61.043,31.483C60.975,31.416 60.229,32.086 60.127,32.152C59.72,32.42 59.279,32.621 58.804,32.755C58.058,32.956 57.21,32.956 56.464,32.788C53.208,32.052 52.53,28.238 52.801,25.46C52.937,23.988 53.411,22.516 54.429,21.445C55.379,20.475 56.667,19.973 57.99,19.872C59.008,19.772 59.991,19.839 60.907,20.207ZM60.907,30.881L60.907,21.11C60.907,20.91 60.873,20.876 60.636,20.742C60.161,20.475 59.55,20.374 59.042,20.575C58.262,20.876 57.888,21.78 57.685,22.516C57.278,23.854 57.244,25.293 57.278,26.698C57.312,27.903 57.346,29.375 58.024,30.446C58.635,31.383 60.025,31.617 60.907,30.881ZM72.134,19.906C72.303,19.939 72.507,19.872 72.575,20.04C72.609,20.14 72.575,20.374 72.575,20.475L72.575,30.948C72.575,31.082 72.541,31.282 72.575,31.416C72.609,31.55 72.744,31.584 72.88,31.651C73.084,31.751 73.253,31.851 73.457,31.952C73.524,31.985 73.728,32.052 73.762,32.152C73.762,32.186 73.796,32.587 73.762,32.621L73.66,32.621C73.457,32.654 73.185,32.621 72.948,32.621L67.792,32.621C67.657,32.621 67.284,32.688 67.182,32.621C67.114,32.587 67.08,32.186 67.148,32.119C67.216,32.019 67.453,31.952 67.555,31.918C67.758,31.818 67.962,31.684 68.166,31.584C68.335,31.483 68.301,31.517 68.301,31.383C68.369,30.881 68.301,30.312 68.301,29.81L68.301,22.348C68.301,22.215 68.335,21.98 68.301,21.847C68.267,21.713 68.098,21.713 67.962,21.646C67.725,21.545 67.521,21.479 67.284,21.378C67.216,21.345 66.944,21.311 66.877,21.211C66.843,21.177 66.843,20.843 66.877,20.809C66.911,20.776 66.978,20.809 67.012,20.776C67.284,20.675 67.589,20.675 67.894,20.609C68.335,20.542 68.742,20.441 69.183,20.374C70.031,20.24 70.845,20.073 71.693,19.939C71.863,19.973 71.998,19.939 72.134,19.906L72.134,19.906ZM72.609,16.794C72.541,18.802 69.794,19.672 68.539,18.099C67.962,17.363 67.928,16.359 68.437,15.589C68.946,14.82 69.929,14.485 70.845,14.686C71.863,14.887 72.609,15.757 72.609,16.794ZM87.465,31.483L87.465,21.88C87.465,21.847 87.499,21.679 87.465,21.646C87.431,21.579 87.227,21.545 87.159,21.545C86.956,21.479 86.752,21.412 86.549,21.345C86.447,21.311 86.176,21.278 86.108,21.177C86.04,21.11 86.074,20.943 86.074,20.843C86.074,20.642 86.142,20.675 86.345,20.642L90.822,19.839C90.958,19.805 91.06,19.772 91.196,19.772C91.263,19.772 91.603,19.772 91.67,19.805C91.704,19.839 91.67,20.04 91.67,20.107L91.67,20.742C91.67,20.843 91.603,21.144 91.67,21.244C91.738,21.378 91.874,21.244 91.976,21.144C92.281,20.91 92.586,20.709 92.925,20.542C94.146,19.872 95.605,19.571 96.995,19.772C97.945,19.906 98.725,20.408 99.064,21.311C99.302,21.947 99.336,22.616 99.336,23.285L99.336,30.914C99.336,31.048 99.302,31.282 99.336,31.416C99.37,31.55 99.471,31.584 99.641,31.651C99.811,31.751 100.014,31.851 100.184,31.952C100.251,31.985 100.489,32.052 100.523,32.152C100.557,32.219 100.557,32.554 100.523,32.587C100.489,32.654 100.557,32.587 100.455,32.621C100.319,32.688 100.014,32.621 99.845,32.621L94.994,32.621C94.791,32.621 94.011,32.721 93.909,32.587C93.875,32.554 93.875,32.186 93.909,32.119C93.943,32.052 94.146,31.985 94.214,31.952C94.418,31.851 94.587,31.751 94.791,31.651C94.859,31.617 95.062,31.55 95.096,31.483C95.13,31.416 95.096,31.282 95.096,31.216L95.096,23.62C95.096,23.085 95.13,22.482 94.791,22.014C94.519,21.612 94.045,21.512 93.57,21.479C93.197,21.479 92.858,21.512 92.518,21.612C92.349,21.679 91.84,21.813 91.738,22.014C91.704,22.081 91.738,22.215 91.738,22.282L91.738,30.948C91.738,31.048 91.704,31.282 91.738,31.383C91.772,31.517 91.976,31.55 92.077,31.617C92.247,31.717 92.451,31.818 92.62,31.918C92.688,31.952 92.824,32.019 92.858,32.052C92.891,32.086 92.891,32.487 92.858,32.521C92.858,32.554 92.824,32.521 92.79,32.521C92.654,32.587 92.315,32.521 92.179,32.521L86.481,32.521C86.311,32.521 86.278,32.554 86.244,32.454C86.21,32.387 86.21,32.086 86.244,32.019C86.278,31.952 86.481,31.885 86.549,31.851C86.888,31.818 87.159,31.651 87.465,31.483L87.465,31.483ZM80.274,25.326C80.274,24.457 80.308,23.553 80.24,22.65C80.138,21.679 79.867,20.609 78.748,20.408C78.409,20.341 77.798,20.24 77.561,20.508C77.323,20.742 77.154,21.077 76.95,21.345C76.374,22.114 75.797,22.884 75.22,23.653C75.119,23.787 75.017,24.055 74.881,24.122C74.847,24.155 74.508,24.155 74.508,24.122C74.474,24.088 74.508,23.854 74.508,23.787L74.508,21.077C74.508,20.977 74.474,20.809 74.508,20.709C74.576,20.542 75.322,20.441 75.492,20.374C76.441,20.14 77.425,19.973 78.409,19.906C79.799,19.805 81.359,19.839 82.648,20.441C83.666,20.91 84.31,21.746 84.48,22.817C84.582,23.352 84.548,23.955 84.548,24.49L84.548,31.182C84.548,31.282 84.48,31.55 84.548,31.617C84.582,31.651 84.751,31.684 84.785,31.684C85.056,31.751 85.294,31.818 85.565,31.885C85.735,31.918 85.769,31.918 85.769,32.086C85.769,32.253 85.803,32.253 85.599,32.32C85.362,32.42 85.124,32.521 84.887,32.587C83.632,32.956 81.665,33.056 80.749,31.918C80.681,31.818 80.478,31.383 80.376,31.349C80.24,31.316 79.833,31.851 79.697,31.952C79.155,32.42 78.443,32.688 77.73,32.788C76.407,32.956 74.983,32.688 74.169,31.55C73.491,30.58 73.355,29.074 73.864,28.003C74.779,25.962 77.493,25.761 79.46,25.427C79.697,25.427 79.969,25.36 80.274,25.326L80.274,25.326ZM80.274,30.881L80.274,25.929C79.257,25.996 78.205,26.063 77.832,27.167C77.561,27.903 77.561,28.773 77.662,29.543C77.73,30.078 77.866,30.747 78.375,31.082C78.917,31.45 79.833,31.383 80.274,30.881ZM37.334,25.326C37.334,24.457 37.368,23.553 37.301,22.65C37.199,21.679 36.927,20.609 35.808,20.408C35.469,20.341 34.858,20.24 34.621,20.508C34.384,20.742 34.214,21.077 34.011,21.345C33.434,22.114 32.857,22.884 32.281,23.653C32.179,23.787 32.077,24.055 31.942,24.122C31.908,24.155 31.568,24.155 31.568,24.122C31.535,24.088 31.568,23.854 31.568,23.787L31.568,21.11C31.568,21.01 31.535,20.843 31.568,20.742C31.636,20.575 32.349,20.475 32.552,20.408C33.502,20.174 34.485,20.006 35.435,19.939C36.826,19.839 38.386,19.872 39.675,20.475C40.692,20.943 41.337,21.78 41.506,22.85C41.608,23.386 41.574,23.988 41.574,24.523L41.574,31.216C41.574,31.316 41.506,31.584 41.574,31.651C41.608,31.684 41.778,31.717 41.812,31.717C42.083,31.784 42.32,31.851 42.592,31.918C42.761,31.952 42.795,31.952 42.795,32.119C42.795,32.286 42.829,32.286 42.626,32.353C42.388,32.454 42.151,32.554 41.913,32.621C40.658,32.989 38.691,33.089 37.775,31.952C37.708,31.851 37.504,31.416 37.402,31.383C37.267,31.349 36.86,31.885 36.758,31.985C36.215,32.454 35.503,32.721 34.791,32.822C33.468,32.989 32.043,32.721 31.229,31.584C30.551,30.613 30.415,29.108 30.924,28.037C31.84,25.996 34.553,25.795 36.487,25.46C36.758,25.427 37.029,25.36 37.334,25.326L37.334,25.326ZM37.334,30.881L37.334,25.929C36.317,25.996 35.265,26.063 34.892,27.167C34.621,27.903 34.621,28.773 34.723,29.543C34.791,30.078 34.926,30.747 35.435,31.082C35.978,31.45 36.894,31.383 37.334,30.881Z" style="fill:white;fill-rule:nonzero;"/>
</svg>
